<?xml version="1.0" encoding="UTF-8"?>
<svg version="1.1" xmlns="http://www.w3.org/2000/svg" width="50" height="53">
<path d="M0 0 C16.5 0 33 0 50 0 C50 17.49 50 34.98 50 53 C33.5 53 17 53 0 53 C0 35.51 0 18.02 0 0 Z " fill="#3C3B38" transform="translate(0,0)"/>
<path d="M0 0 C5.34432451 3.08249428 8.56239281 7.19499093 10.5234375 13.078125 C11.08019255 19.70565151 11.13467234 26.28747825 7.5234375 32.078125 C2.86986562 37.23727012 -1.86878683 40.07567767 -8.8515625 40.453125 C-14.35744895 40.30678915 -17.98406338 38.43178465 -21.94921875 34.6875 C-27.04698167 29.03983263 -28.01208452 23.26851137 -27.8515625 15.89453125 C-27.0520802 9.89008605 -23.97143449 5.01729408 -19.4765625 1.015625 C-13.83191497 -2.52926305 -6.09278958 -2.26797846 0 0 Z " fill="#94B94B" transform="translate(32.4765625,6.921875)"/>
<path d="M0 0 C0.66 0 1.32 0 2 0 C2.99 2.64 3.98 5.28 5 8 C7.64 8.33 10.28 8.66 13 9 C13 9.99 13 10.98 13 12 C12.154375 12.515625 11.30875 13.03125 10.4375 13.5625 C7.73269867 15.71864355 7.73269867 15.71864355 7.890625 18.48046875 C8.16233813 21.01526625 8.51759019 23.49720057 9 26 C8.278125 25.690625 7.55625 25.38125 6.8125 25.0625 C4.11298705 24.042684 1.87842747 23.2214175 -1 23 C-3.19038423 24.37168238 -3.19038423 24.37168238 -5 26 C-5.66 26 -6.32 26 -7 26 C-6.85820312 25.33613281 -6.71640625 24.67226563 -6.5703125 23.98828125 C-5.51585627 18.86210694 -5.51585627 18.86210694 -7.26953125 14.22265625 C-9.09821882 12.68548971 -9.09821882 12.68548971 -12 11 C-11.67 10.34 -11.34 9.68 -11 9 C-8.35139573 8.40644386 -5.70802678 8.25790731 -3 8 C-2.01 5.36 -1.02 2.72 0 0 Z " fill="#F9FAF6" transform="translate(23,12)"/>
</svg>
