<svg  width="609" height="600" xmlns="http://www.w3.org/2000/svg" ><path  d="
 M 297 86 C 321 83, 343, 90, 365, 93
 C 388 101, 407, 114, 426, 129
 C 443 146, 457, 162, 466, 180
 C 476 203, 487, 224, 489, 248
 C 489 274, 490, 297, 488, 319
 C 479 345, 473, 369, 458, 389
 C 442 415, 421, 435, 396, 449
 C 376 460, 356, 466, 335, 470
 C 314 470, 295, 472, 279, 468
 C 251 460, 227, 451, 207, 433
 C 186 416, 171, 397, 160, 376
 C 148 354, 141, 333, 137, 311
 C 134 285, 136, 261, 137, 238
 C 146 209, 155, 182, 174, 159
 C 187 140, 205, 123, 221, 113
 C 235 103, 249, 99, 262, 94
 C 274 89, 285, 90, 296, 87" fill="rgb(209,100,97)" />
<path  d="
 M 299 87 C 288 91, 275, 90, 263, 93
 C 249 100, 235, 104, 224, 113
 C 205 124, 188, 141, 176, 157
 C 156 182, 147, 209, 139, 236
 C 137 261, 135, 285, 138, 308
 C 142 333, 149, 354, 160, 374
 C 172 397, 186, 415, 205, 431
 C 227 450, 251, 459, 277, 466
 C 295 471, 314, 469, 332, 470
 C 356 465, 376, 459, 395, 450
 C 421 434, 441, 414, 456, 391
 C 472 369, 478, 345, 486, 321
 C 489 297, 488, 274, 489, 251
 C 486 224, 475, 203, 467, 181
 C 456 162, 443, 147, 428, 131
 C 407 115, 388, 102, 366, 96
 C 344 91, 324, 85, 300, 87" fill="rgb(210,101,98)" />
<path  d="
 M 246 156 C 263 154, 279, 158, 292, 166
 C 309 176, 317, 191, 322, 205
 C 322 216, 323, 226, 322, 234
 C 320 244, 313, 251, 312, 259
 C 290 276, 277, 301, 265, 320
 C 252 318, 244, 318, 235, 318
 C 224 311, 230, 301, 228, 290
 C 229 279, 237, 274, 239, 266
 C 249 254, 260, 247, 267, 237
 C 271 230, 274, 225, 272, 218
 C 267 212, 261, 206, 254, 205
 C 242 208, 234, 213, 225, 217
 C 212 211, 208, 199, 200, 190
 C 198 176, 208, 174, 215, 167
 C 227 166, 234, 157, 244, 156" fill="rgb(246,231,230)" />
<path  d="
 M 248 157 C 236 156, 228, 166, 216, 166
 C 208 174, 199, 177, 201, 188
 C 209 199, 212, 210, 224, 216
 C 234 212, 242, 207, 251, 204
 C 261 206, 268, 211, 273, 216
 C 275 225, 272, 230, 268, 234
 C 261 247, 250, 254, 242, 265
 C 238 274, 230, 279, 231, 289
 C 231 300, 225, 310, 234, 317
 C 244 317, 252, 317, 260, 317
 C 275 300, 290, 276, 311, 262
 C 312 251, 319, 244, 321, 237
 C 321 225, 322, 217, 321, 207
 C 316 191, 308, 177, 294, 168
 C 280 159, 266, 155, 249, 157" fill="rgb(248,235,234)" />
<path  d="
 M 357 156 C 375 153, 391, 158, 404, 166
 C 412 173, 419, 178, 423, 186
 C 428 196, 433, 204, 431, 215
 C 433 231, 426, 241, 423, 254
 C 401 275, 387, 296, 376, 320
 C 363 318, 355, 318, 346, 318
 C 335 312, 339, 301, 338, 292
 C 339 279, 349, 272, 352, 262
 C 361 253, 368, 247, 375, 238
 C 379 230, 386, 225, 380, 217
 C 375 211, 370, 208, 365, 205
 C 353 206, 347, 216, 336, 212
 C 328 203, 333, 189, 323, 182
 C 323 175, 321, 169, 326, 167
 C 338 165, 345, 157, 355, 156" fill="rgb(246,230,228)" />
<path  d="
 M 359 157 C 347 156, 339, 166, 327, 166
 C 322 170, 324, 176, 323, 179
 C 334 189, 330, 201, 335, 210
 C 347 215, 353, 205, 362, 204
 C 370 208, 376, 210, 380, 216
 C 387 225, 380, 230, 378, 237
 C 369 247, 362, 253, 355, 262
 C 350 272, 340, 279, 340, 289
 C 340 300, 337, 311, 345, 316
 C 355 317, 363, 317, 371, 317
 C 385 295, 401, 275, 421, 256
 C 425 241, 432, 231, 431, 216
 C 432 204, 427, 196, 423, 188
 C 418 179, 412, 173, 406, 169
 C 391 160, 377, 155, 360, 157" fill="rgb(247,234,233)" />
<path  d="
 M 343 344 C 357 346, 374, 341, 385, 349
 C 386 365, 389, 383, 385, 396
 C 368 397, 350, 400, 338, 394
 C 336 380, 337, 367, 336, 355
 C 339 351, 340, 349, 342, 348" fill="rgb(243,222,220)" />
<path  d="
 M 232 345 C 245 345, 260, 343, 271, 347
 C 278 361, 278, 383, 274, 396
 C 259 399, 246, 397, 235, 398
 C 230 396, 229, 394, 227, 393
 C 226 378, 226, 366, 226, 354
 C 228 351, 230, 349, 230, 347" fill="rgb(243,221,220)" />
<path  d="
 M 345 346 C 342 348, 340, 350, 339, 353
 C 338 367, 337, 380, 338, 392
 C 351 399, 368, 396, 381, 396
 C 387 381, 385, 365, 385, 351
 C 374 343, 359, 347, 347, 345" fill="rgb(245,228,226)" />
<path  d="
 M 233 345 C 222 357, 230, 376, 227, 390
 C 240 399, 257, 396, 270, 396
 C 276 381, 278, 361, 273, 348
 C 260 344, 247, 346, 236, 345" fill="rgb(245,227,226)" /></svg>