<?xml version="1.0" encoding="UTF-8"?>
<svg version="1.1" xmlns="http://www.w3.org/2000/svg" width="68" height="68">
<path d="M0 0 C22.44 0 44.88 0 68 0 C68 22.44 68 44.88 68 68 C45.56 68 23.12 68 0 68 C0 45.56 0 23.12 0 0 Z " fill="#3C3A38" transform="translate(0,0)"/>
<path d="M0 0 C4.86816819 2.6885347 8.76072273 7.13015542 10.51953125 12.44921875 C11.71203968 19.32907506 11.31851884 25.3254145 7.875 31.5 C4.71951705 35.9347328 2.04568488 38.6750524 -3.125 40.5 C-10.16189231 41.17018022 -14.77190218 39.60543352 -20.8125 35.8125 C-25.64117702 30.98382298 -27.37514268 26.32368943 -27.625 19.5 C-27.40554727 14.05482903 -26.58251734 9.80034706 -23.125 5.5 C-16.33603352 -0.74257079 -8.92759629 -3.88975884 0 0 Z " fill="#A28462" transform="translate(39.125,14.5)"/>
<path d="M0 0 C8 0 8 0 10.484375 0.89453125 C13.05602903 4.46700939 12.41228927 8.42116472 12.25 12.6875 C12.23195313 13.58017578 12.21390625 14.47285156 12.1953125 15.39257812 C12.14819096 17.59551018 12.07644739 19.79789058 12 22 C8.04 21.67 4.08 21.34 0 21 C0 14.07 0 7.14 0 0 Z " fill="#F8F6F4" transform="translate(18,23)"/>
<path d="M0 0 C0 6.6 0 13.2 0 20 C-4 21 -8 22 -12 23 C-12 16.07 -12 9.14 -12 2 C-8 0 -8 0 0 0 Z " fill="#F9F7F6" transform="translate(44,23)"/>
</svg>
