<?xml version="1.0" encoding="UTF-8"?>
<svg version="1.1" xmlns="http://www.w3.org/2000/svg" width="47" height="47">
<path d="M0 0 C15.51 0 31.02 0 47 0 C47 15.51 47 31.02 47 47 C31.49 47 15.98 47 0 47 C0 31.49 0 15.98 0 0 Z " fill="#1DABA4" transform="translate(0,0)"/>
<path d="M0 0 C15.51 0 31.02 0 47 0 C47 15.51 47 31.02 47 47 C31.49 47 15.98 47 0 47 C0 31.49 0 15.98 0 0 Z M7 10 C2.72889336 15.78666061 2.26997772 21.98767329 3 29 C4.75589678 35.3613632 7.51588273 39.3804826 13 43 C17.50765244 45.05784133 22.09289882 45.88383061 27 45 C32.84790786 42.5786851 37.07910218 38.60361083 40 33 C41.99121632 26.83488792 42.08762674 19.54550483 39.375 13.625 C36.68245863 8.95856709 33.17399601 5.72466534 28 4 C19.30838913 3.06068774 13.11006504 3.35589329 7 10 Z " fill="#3A3B3A" transform="translate(0,0)"/>
<path d="M0 0 C1.98 0 3.96 0 6 0 C6 5.61 6 11.22 6 17 C4.02 17 2.04 17 0 17 C0 11.39 0 5.78 0 0 Z " fill="#E8F4F4" transform="translate(24,10)"/>
<path d="M0 0 C1.98 0 3.96 0 6 0 C6 5.61 6 11.22 6 17 C4.02 17 2.04 17 0 17 C0 11.39 0 5.78 0 0 Z " fill="#E9F5F4" transform="translate(14,10)"/>
<path d="M0 0 C1.98 0 3.96 0 6 0 C6 1.98 6 3.96 6 6 C4.02 6 2.04 6 0 6 C0 4.02 0 2.04 0 0 Z " fill="#DFF0F0" transform="translate(24,31)"/>
<path d="M0 0 C1.98 0 3.96 0 6 0 C6 1.98 6 3.96 6 6 C4.02 6 2.04 6 0 6 C0 4.02 0 2.04 0 0 Z " fill="#E5F3F3" transform="translate(14,31)"/>
</svg>
