<?xml version="1.0" encoding="UTF-8"?>
<svg version="1.1" xmlns="http://www.w3.org/2000/svg" width="58" height="59">
<path d="M0 0 C19.14 0 38.28 0 58 0 C58 19.47 58 38.94 58 59 C38.86 59 19.72 59 0 59 C0 39.53 0 20.06 0 0 Z " fill="#3C3A38" transform="translate(0,0)"/>
<path d="M0 0 C4.84447464 2.34680432 7.8116491 5.81272979 10.375 10.5 C12.6954265 17.63210846 11.97360532 24.88094856 8.640625 31.5234375 C6.05778258 35.55713585 2.91712053 37.72893974 -1.375 39.875 C-6.81662924 40.92146716 -11.86154219 40.86753306 -16.90625 38.37109375 C-21.7712545 35.0400179 -25.05755144 31.23745321 -26.625 25.5 C-27.65137874 17.31256498 -26.35158021 11.68724818 -21.875 4.8125 C-15.3523905 -1.89129309 -8.64641014 -3.2496575 0 0 Z " fill="#95BA4E" transform="translate(36.625,9.5)"/>
<path d="M0 0 C0.99 0 1.98 0 3 0 C3 2.97 3 5.94 3 9 C3.804375 8.979375 4.60875 8.95875 5.4375 8.9375 C8 9 8 9 9 10 C8.93579251 11.62853535 8.7987936 13.25449212 8.625 14.875 C8.53476562 15.75929688 8.44453125 16.64359375 8.3515625 17.5546875 C8 20 8 20 7 23 C5.41676312 23.027193 3.83338938 23.04648306 2.25 23.0625 C0.92742188 23.07990234 0.92742188 23.07990234 -0.421875 23.09765625 C-2.7818838 23.00826198 -4.74498524 22.66912821 -7 22 C-7.79102579 10.978374 -7.79102579 10.978374 -4.625 7.0625 C-3.75875 6.381875 -2.8925 5.70125 -2 5 C-0.680982 2.33466965 -0.680982 2.33466965 0 0 Z " fill="#FCFCFA" transform="translate(31,16)"/>
<path d="M0 0 C1.32 0 2.64 0 4 0 C4 3.96 4 7.92 4 12 C2.68 12 1.36 12 0 12 C0 8.04 0 4.08 0 0 Z " fill="#FFFFFF" transform="translate(18,26)"/>
</svg>
