<?xml version="1.0" encoding="UTF-8"?>
<svg version="1.1" xmlns="http://www.w3.org/2000/svg" width="46" height="45">
<path d="M0 0 C15.18 0 30.36 0 46 0 C46 14.85 46 29.7 46 45 C30.82 45 15.64 45 0 45 C0 30.15 0 15.3 0 0 Z " fill="#95AD8A" transform="translate(0,0)"/>
<path d="M0 0 C15.18 0 30.36 0 46 0 C46 14.85 46 29.7 46 45 C30.82 45 15.64 45 0 45 C0 30.15 0 15.3 0 0 Z M6 11 C2.16277668 16.50842278 1.98810579 21.46415871 3 28 C5.20570825 33.28744246 8.709247 37.89263075 13.953125 40.41015625 C19.84620558 42.10835314 25.85372074 41.86478716 31.4375 39.3125 C36.53471898 36.35215196 39.08488141 32.49590755 41 27 C41.92750613 21.11390341 41.63384668 16.21461207 38.5 11.0625 C34.78274914 6.20482791 30.8129448 3.56536768 24.734375 2.6640625 C16.8524319 2.31554121 11.14839659 4.99353731 6 11 Z " fill="#3C3B39" transform="translate(0,0)"/>
<path d="M0 0 C1.32 0.99 2.64 1.98 4 3 C2.67879172 5.93230193 1.25361803 7.98664899 -1.0390625 10.234375 C-1.90917969 11.09482422 -1.90917969 11.09482422 -2.796875 11.97265625 C-3.40015625 12.55917969 -4.0034375 13.14570313 -4.625 13.75 C-5.23601563 14.35199219 -5.84703125 14.95398438 -6.4765625 15.57421875 C-7.97988624 17.05405305 -9.48934856 18.52764676 -11 20 C-14.21524305 18.59155282 -16.32183868 16.89655214 -18.75 14.375 C-19.36359375 13.74335938 -19.9771875 13.11171875 -20.609375 12.4609375 C-21.06828125 11.97882812 -21.5271875 11.49671875 -22 11 C-21.34 9.68 -20.68 8.36 -20 7 C-16.73045798 7.56371414 -15.17424117 8.49962266 -13 11 C-9.31930113 9.46356148 -7.01224796 7.21849055 -4.25 4.375 C-3.45078125 3.55773437 -2.6515625 2.74046875 -1.828125 1.8984375 C-1.22484375 1.27195312 -0.6215625 0.64546875 0 0 Z " fill="#FDFDFD" transform="translate(31,12)"/>
</svg>
