<?xml version="1.0" encoding="UTF-8"?>
<svg version="1.1" xmlns="http://www.w3.org/2000/svg" width="53" height="53">
<path d="M0 0 C17.49 0 34.98 0 53 0 C53 17.49 53 34.98 53 53 C35.51 53 18.02 53 0 53 C0 35.51 0 18.02 0 0 Z " fill="#3B3A39" transform="translate(0,0)"/>
<path d="M0 0 C6.14566381 2.53797038 10.39124351 6.62161136 13.25 12.625 C14.85604035 19.85218156 15.06937667 26.745226 11.265625 33.28125 C7.82836663 37.94913174 3.70349415 40.71962376 -2 42 C-7.86694932 42.65188326 -12.33567593 41.57849964 -17 38 C-22.97563126 30.71800779 -24.66960089 25.33651055 -24 16 C-22.92017926 10.18481859 -20.38399296 6.88471919 -15.81640625 3.2265625 C-10.62435109 -0.27947045 -6.20071382 -0.91241735 0 0 Z " fill="#5B89AD" transform="translate(29,6)"/>
<path d="M0 0 C1.98 0 3.96 0 6 0 C6 5.61 6 11.22 6 17 C4.02 17 2.04 17 0 17 C0 11.39 0 5.78 0 0 Z " fill="#EFF4F6" transform="translate(21,13)"/>
<path d="M0 0 C1.67542976 0.28604898 3.34385343 0.61781233 5 1 C5 2.65 5 4.3 5 6 C3.02 6 1.04 6 -1 6 C-1.042721 4.33388095 -1.04063832 2.66617115 -1 1 C-0.67 0.67 -0.34 0.34 0 0 Z " fill="#ECF0F4" transform="translate(22,33)"/>
</svg>
