<?xml version="1.0" encoding="UTF-8"?>
<svg version="1.1" xmlns="http://www.w3.org/2000/svg" width="63" height="63">
<path d="M0 0 C20.79 0 41.58 0 63 0 C63 20.79 63 41.58 63 63 C42.21 63 21.42 63 0 63 C0 42.21 0 21.42 0 0 Z " fill="#3C3A39" transform="translate(0,0)"/>
<path d="M0 0 C4.34980744 3.0931964 8.40352749 7.18205498 10.8125 12 C11.54424235 19.12549105 11.16306499 25.13272428 6.8125 31 C2.36456662 35.65697463 -1.56334381 37.15880842 -7.9375 37.3125 C-13.67562142 37.25705921 -16.65167596 36.49636436 -21.1875 33 C-26.09520511 27.69437286 -27.6244621 23.65503427 -27.42578125 16.5234375 C-26.75643074 9.43490584 -23.31616374 5.76777278 -18.125 1.3828125 C-12.94632112 -2.31326074 -5.83389697 -1.83024219 0 0 Z " fill="#F2BD46" transform="translate(35.1875,15)"/>
<path d="M0 0 C1.19109375 0.14695312 1.19109375 0.14695312 2.40625 0.296875 C3.59734375 0.42835937 3.59734375 0.42835937 4.8125 0.5625 C6.90625 1.046875 6.90625 1.046875 8.90625 3.046875 C9.56642065 7.10220899 8.89460363 9.54861765 6.71875 12.921875 C4.37044903 15.97466626 4.37044903 15.97466626 1.09375 16.484375 C0.371875 16.34 -0.35 16.195625 -1.09375 16.046875 C-0.58394669 12.27433047 0.11325182 10.59700377 2.90625 8.046875 C2.90625 7.386875 2.90625 6.726875 2.90625 6.046875 C1.25625 6.046875 -0.39375 6.046875 -2.09375 6.046875 C-2.75375 4.726875 -3.41375 3.406875 -4.09375 2.046875 C-2.09375 0.046875 -2.09375 0.046875 0 0 Z " fill="#FCFAF5" transform="translate(20.09375,20.953125)"/>
<path d="M0 0 C1.98 0 3.96 0 6 0 C6 5.28 6 10.56 6 16 C4.35 16 2.7 16 1 16 C0 15 0 15 -0.09765625 11.62109375 C-0.09098369 10.22652923 -0.07902532 8.83198257 -0.0625 7.4375 C-0.05798828 6.72658203 -0.05347656 6.01566406 -0.04882812 5.28320312 C-0.03700864 3.52209987 -0.01907263 1.76103964 0 0 Z " fill="#FBF7EE" transform="translate(31,21)"/>
<path d="M0 0 C1.98 0 3.96 0 6 0 C6 1.65 6 3.3 6 5 C4.02 5 2.04 5 0 5 C0 3.35 0 1.7 0 0 Z " fill="#FCF9F4" transform="translate(31,40)"/>
<path d="M0 0 C1.65 0 3.3 0 5 0 C5 1.65 5 3.3 5 5 C3.35 5 1.7 5 0 5 C0 3.35 0 1.7 0 0 Z " fill="#FEFEFE" transform="translate(19,40)"/>
</svg>
