<?xml version="1.0" encoding="UTF-8"?>
<svg version="1.1" xmlns="http://www.w3.org/2000/svg" width="69" height="69">
<path d="M0 0 C22.77 0 45.54 0 69 0 C69 22.77 69 45.54 69 69 C46.23 69 23.46 69 0 69 C0 46.23 0 23.46 0 0 Z " fill="#3C3A38" transform="translate(0,0)"/>
<path d="M0 0 C5.02576395 2.98106151 9.10039959 6.81017419 11.7421875 12.09375 C12.49455604 19.08002928 12.41729953 24.693137 8.17578125 30.47265625 C4.54412035 34.57930277 1.39001488 36.80759629 -4.11328125 37.40234375 C-10.89256115 37.66461366 -15.51517777 37.52893034 -20.66796875 32.85546875 C-25.33990516 27.67845814 -26.9192106 23.57849671 -26.56640625 16.51171875 C-25.66955445 9.48448759 -22.39184249 5.86605563 -17.1953125 1.4765625 C-12.36585223 -1.97027003 -5.42745228 -2.17849296 0 0 Z " fill="#E96B56" transform="translate(35.2578125,14.90625)"/>
<path d="M0 0 C0.66 0 1.32 0 2 0 C2.78375 0.845625 3.5675 1.69125 4.375 2.5625 C6.66287091 5.22354518 6.66287091 5.22354518 9.125 5.0625 C11.44570777 3.74743226 12.56512796 2.22405166 14 0 C15.32 0.66 16.64 1.32 18 2 C18 7.30479934 16.4637943 8.18982627 13 12 C14.98 13.65 16.96 15.3 19 17 C18.34 18.32 17.68 19.64 17 21 C13 21 13 21 10.75 19 C10.1725 18.34 9.595 17.68 9 17 C6.11562221 18.29299694 4.12780579 19.65941363 2 22 C0.0625 21.1875 0.0625 21.1875 -2 20 C-2.33 19.01 -2.66 18.02 -3 17 C-1.02 15.35 0.96 13.7 3 12 C1.02 9.69 -0.96 7.38 -3 5 C-1 1 -1 1 0 0 Z " fill="#EFEBEA" transform="translate(20,22)"/>
</svg>
