<?xml version="1.0" encoding="UTF-8"?>
<svg version="1.1" xmlns="http://www.w3.org/2000/svg" width="67" height="67">
<path d="M0 0 C22.11 0 44.22 0 67 0 C67 22.11 67 44.22 67 67 C44.89 67 22.78 67 0 67 C0 44.89 0 22.78 0 0 Z " fill="#3C3A38" transform="translate(0,0)"/>
<path d="M0 0 C4.86892392 2.68895207 8.7635549 7.13198455 10.51953125 12.453125 C11.70753008 19.29390946 11.57202361 26.4550421 7.875 32.5 C3.25578886 37.63245683 -1.50829654 40.4755531 -8.4375 40.9375 C-13.67949311 40.79794611 -17.21182518 38.91017414 -21.125 35.5 C-26.50945481 29.51430333 -27.51097599 24.26640592 -27.39453125 16.31640625 C-26.88732379 11.01645583 -25.10123725 7.32116028 -21.18359375 3.7109375 C-14.61058207 -1.39736992 -7.93310108 -3.45645671 0 0 Z " fill="#E18D2B" transform="translate(38.125,15.5)"/>
<path d="M0 0 C1.9375 1.1875 1.9375 1.1875 3 3 C3.59373887 6.90171259 3.39247724 8.45559609 1.0625 11.6875 C0.381875 12.450625 -0.29875 13.21375 -1 14 C-1.33 14.99 -1.66 15.98 -2 17 C-3.65 17 -5.3 17 -7 17 C-7.41176754 13.39703406 -7.1535853 12.21597933 -5 9.1875 C-4.34 8.465625 -3.68 7.74375 -3 7 C-3.5775 6.9175 -4.155 6.835 -4.75 6.75 C-7.6159304 5.79468987 -8.9990764 4.21530827 -11 2 C-7.38613475 -1.61386525 -4.79801865 -1.22131384 0 0 Z " fill="#FAF5EE" transform="translate(34,23)"/>
<path d="M0 0 C1.65 0 3.3 0 5 0 C5 1.98 5 3.96 5 6 C3.35 6 1.7 6 0 6 C0 4.02 0 2.04 0 0 Z " fill="#FBF8F3" transform="translate(27,43)"/>
</svg>
