<?xml version="1.0" encoding="UTF-8"?>
<svg version="1.1" xmlns="http://www.w3.org/2000/svg" width="350" height="78">
<path d="M0 0 C115.5 0 231 0 350 0 C350 25.74 350 51.48 350 78 C234.5 78 119 78 0 78 C0 52.26 0 26.52 0 0 Z " fill="#3C3A39" transform="translate(0,0)"/>
<path d="M0 0 C5.34432451 3.08249428 8.56239281 7.19499093 10.5234375 13.078125 C11.08019255 19.70565151 11.13467234 26.28747825 7.5234375 32.078125 C2.86986562 37.23727012 -1.86878683 40.07567767 -8.8515625 40.453125 C-14.35744895 40.30678915 -17.98406338 38.43178465 -21.94921875 34.6875 C-27.04698167 29.03983263 -28.01208452 23.26851137 -27.8515625 15.89453125 C-27.0520802 9.89008605 -23.97143449 5.01729408 -19.4765625 1.015625 C-13.83191497 -2.52926305 -6.09278958 -2.26797846 0 0 Z " fill="#94B94B" transform="translate(52.4765625,13.921875)"/>
<path d="M0 0 C3.17625 -0.0825 6.3525 -0.165 9.625 -0.25 C10.6145166 -0.28641602 11.6040332 -0.32283203 12.62353516 -0.36035156 C18.38630982 -0.43257554 21.67389945 0.0716216 26 4 C27.125 7.4375 27.125 7.4375 27 11 C25.0625 13.9375 25.0625 13.9375 23 16 C23.639375 16.309375 24.27875 16.61875 24.9375 16.9375 C27 18 27 18 28 19 C28.59063136 26.20570265 28.59063136 26.20570265 26.1875 29.4375 C22.80910782 31.85063727 20.14718812 32.12210417 16.11328125 32.09765625 C15.26805908 32.09515869 14.42283691 32.09266113 13.55200195 32.09008789 C12.48296631 32.08098389 11.41393066 32.07187988 10.3125 32.0625 C5.2078125 32.0315625 5.2078125 32.0315625 0 32 C0 21.44 0 10.88 0 0 Z " fill="#91B549" transform="translate(86,18)"/>
<path d="M0 0 C2.97 0 5.94 0 9 0 C11.31 6.93 13.62 13.86 16 21 C17.93308351 14.46404954 17.93308351 14.46404954 19.85913086 7.92602539 C20.22083374 6.71160767 20.22083374 6.71160767 20.58984375 5.47265625 C20.83597412 4.64000244 21.08210449 3.80734863 21.33569336 2.94946289 C22 1 22 1 23 0 C25.97 0 28.94 0 32 0 C32 10.56 32 21.12 32 32 C30.02 32 28.04 32 26 32 C25.67 25.07 25.34 18.14 25 11 C22.69 17.93 20.38 24.86 18 32 C16.35 32 14.7 32 13 32 C11.02 25.73 9.04 19.46 7 13 C6.67 19.27 6.34 25.54 6 32 C4.02 32 2.04 32 0 32 C0 21.44 0 10.88 0 0 Z " fill="#90B449" transform="translate(200,18)"/>
<path d="M0 0 C3.73738736 1.66106105 5.85257708 3.54597609 8 7 C8.73929819 11.86342241 8.61279817 16.49864447 6.75 21.0625 C4.25879678 23.82061785 2.07581478 24.81636394 -1.5859375 25.44140625 C-8.76447876 25.75307961 -8.76447876 25.75307961 -12.05078125 23.75 C-15.10695698 20.59900259 -16.36908949 17.82643072 -16.5625 13.4375 C-16.25922264 9.39150434 -15.33499724 6.38172013 -13 3 C-9.02519946 -0.40697189 -5.02626822 -0.75445 0 0 Z " fill="#91B549" transform="translate(253,25)"/>
<path d="M0 0 C3.62416894 1.64734952 6.12851416 3.45402683 8 7 C8 9.31 8 11.62 8 14 C3.05 14 -1.9 14 -7 14 C-6.34 15.98 -5.68 17.96 -5 20 C-3.33388095 20.042721 -1.66617115 20.04063832 0 20 C0.33 19.67 0.66 19.34 1 19 C2.99958364 18.95919217 5.00045254 18.95745644 7 19 C5.63016497 22.16115776 5.0109362 22.9927092 2 25 C-1.3915846 25.5461026 -4.60763982 25.54104628 -8 25 C-11.34625024 22.47323961 -12.67977847 20.96066458 -14 17 C-14.494097 12.89899494 -14.95235971 8.7767905 -12.953125 5.046875 C-8.91640685 0.15532242 -6.20543559 -0.4207075 0 0 Z " fill="#91B549" transform="translate(305,25)"/>
<path d="M0 0 C4.14623807 1.79042098 6.17613802 3.87231236 8 8 C8 9.98 8 11.96 8 14 C2.72 14 -2.56 14 -8 14 C-7.01 15.98 -6.02 17.96 -5 20 C-3.33388095 20.042721 -1.66617115 20.04063832 0 20 C0.33 19.67 0.66 19.34 1 19 C2.99958364 18.95919217 5.00045254 18.95745644 7 19 C5.63016497 22.16115776 5.0109362 22.9927092 2 25 C-2.85476051 25.70764306 -6.80188749 25.709087 -11.0625 23.1875 C-14.61888683 19.17222454 -14.38656281 14.86997993 -14.359375 9.73828125 C-13.79931339 5.47085526 -12.14910247 3.84918795 -9 1 C-5.93570224 -0.53214888 -3.3834358 -0.22938548 0 0 Z " fill="#91B649" transform="translate(133,25)"/>
<path d="M0 0 C3.125 1.8125 3.125 1.8125 5 4 C5 4.99 5 5.98 5 7 C2.625 7.125 2.625 7.125 0 7 C-0.66 6.34 -1.32 5.68 -2 5 C-5.58343976 4.83322718 -5.58343976 4.83322718 -9 5 C-8.67 5.99 -8.34 6.98 -8 8 C-5.27940236 9.18105313 -5.27940236 9.18105313 -2.0625 10.0625 C3.80338983 11.80338983 3.80338983 11.80338983 6 14 C6.51651858 17.98457188 6.62759666 20.1258475 4.25 23.4375 C-0.74417693 25.8385466 -5.56498405 25.9083383 -11 25 C-13.42726956 23.55065929 -14.34963458 22.35766489 -16 20 C-15.67 19.34 -15.34 18.68 -15 18 C-13.35 18 -11.7 18 -10 18 C-9.67 18.66 -9.34 19.32 -9 20 C-6.36 20 -3.72 20 -1 20 C-1 19.01 -1 18.02 -1 17 C-2.26457031 16.61908203 -2.26457031 16.61908203 -3.5546875 16.23046875 C-4.65039062 15.88628906 -5.74609375 15.54210938 -6.875 15.1875 C-7.96554688 14.85105469 -9.05609375 14.51460937 -10.1796875 14.16796875 C-13 13 -13 13 -15 10 C-14.7768766 3.7525449 -14.7768766 3.7525449 -12.25390625 1.30859375 C-8.35050243 -0.95768056 -4.3745848 -0.65018062 0 0 Z " fill="#90B349" transform="translate(160,25)"/>
<path d="M0 0 C0.66 0 1.32 0 2 0 C2.99 2.64 3.98 5.28 5 8 C7.64 8.33 10.28 8.66 13 9 C13 9.99 13 10.98 13 12 C12.154375 12.515625 11.30875 13.03125 10.4375 13.5625 C7.73269867 15.71864355 7.73269867 15.71864355 7.890625 18.48046875 C8.16233813 21.01526625 8.51759019 23.49720057 9 26 C8.278125 25.690625 7.55625 25.38125 6.8125 25.0625 C4.11298705 24.042684 1.87842747 23.2214175 -1 23 C-3.19038423 24.37168238 -3.19038423 24.37168238 -5 26 C-5.66 26 -6.32 26 -7 26 C-6.85820313 25.33613281 -6.71640625 24.67226563 -6.5703125 23.98828125 C-5.51585627 18.86210694 -5.51585627 18.86210694 -7.26953125 14.22265625 C-9.09821882 12.68548971 -9.09821882 12.68548971 -12 11 C-11.67 10.34 -11.34 9.68 -11 9 C-8.35139573 8.40644386 -5.70802678 8.25790731 -3 8 C-2.01 5.36 -1.02 2.72 0 0 Z " fill="#F9FAF6" transform="translate(43,19)"/>
<path d="M0 0 C2.31 0 4.62 0 7 0 C7.67548578 2.05962852 8.34004312 4.12284322 9 6.1875 C9.37125 7.33605469 9.7425 8.48460937 10.125 9.66796875 C10.90630553 12.64320812 11.18363306 14.95283896 11 18 C11.66 18 12.32 18 13 18 C13.0825 16.88625 13.165 15.7725 13.25 14.625 C13.87919026 9.3848781 15.88630871 4.79758766 18 0 C19.98 0 21.96 0 24 0 C23.39461212 3.35951302 22.56675919 6.44884363 21.37109375 9.64453125 C21.05849609 10.48564453 20.74589844 11.32675781 20.42382812 12.19335938 C19.9355957 13.48983398 19.9355957 13.48983398 19.4375 14.8125 C19.10814453 15.69615234 18.77878906 16.57980469 18.43945312 17.49023438 C17.62965399 19.66143495 16.81641107 21.83127889 16 24 C13.36 24 10.72 24 8 24 C6.66147204 20.37689672 5.33006282 16.75121856 4 13.125 C3.6184375 12.09246094 3.236875 11.05992188 2.84375 9.99609375 C2.4828125 9.00996094 2.121875 8.02382813 1.75 7.0078125 C1.41484375 6.09660645 1.0796875 5.18540039 0.734375 4.24658203 C0 2 0 2 0 0 Z " fill="#91B549" transform="translate(264,26)"/>
<path d="M0 0 C1.32 0 2.64 0 4 0 C4 1.65 4 3.3 4 5 C5.65 5 7.3 5 9 5 C9 6.65 9 8.3 9 10 C7.35 10 5.7 10 4 10 C4.33 14.95 4.66 19.9 5 25 C6.32 25.33 7.64 25.66 9 26 C9 27.32 9 28.64 9 30 C7.54257537 30.08096803 6.08387193 30.13917774 4.625 30.1875 C3.81289062 30.22230469 3.00078125 30.25710937 2.1640625 30.29296875 C1.44992188 30.19628906 0.73578125 30.09960938 0 30 C-2.03120707 26.95318939 -2.24659875 26.39881676 -2.1953125 22.98828125 C-2.18886719 22.23095703 -2.18242187 21.47363281 -2.17578125 20.69335938 C-2.15902344 19.90767578 -2.14226562 19.12199219 -2.125 18.3125 C-2.11597656 17.51521484 -2.10695312 16.71792969 -2.09765625 15.89648438 C-2.07411585 13.930861 -2.03824547 11.96539225 -2 10 C-2.99 10 -3.98 10 -5 10 C-5 8.35 -5 6.7 -5 5 C-4.01 4.67 -3.02 4.34 -2 4 C-0.79117904 1.99983534 -0.79117904 1.99983534 0 0 Z " fill="#91B649" transform="translate(174,20)"/>
<path d="M0 0 C3.0625 0.3125 3.0625 0.3125 4.73046875 1.5546875 C7.1624163 4.76400245 6.56152876 8.4727509 6.0625 12.3125 C4.9375 14.875 4.9375 14.875 3.0625 16.3125 C0 16.75 0 16.75 -2.9375 16.3125 C-5.17984009 12.94898987 -5.20848215 11.68939944 -5.1875 7.75 C-5.19265625 6.77933594 -5.1978125 5.80867188 -5.203125 4.80859375 C-4.80035987 1.02378615 -3.7154454 0.39526015 0 0 Z " fill="#3F3F39" transform="translate(248.9375,29.6875)"/>
<path d="M0 0 C1.93719378 -0.05406122 3.87481921 -0.09282025 5.8125 -0.125 C6.89144531 -0.14820313 7.97039062 -0.17140625 9.08203125 -0.1953125 C12 0 12 0 15 2 C15.375 4.5 15.375 4.5 15 7 C11.47320901 9.35119399 9.97120515 9.21443452 5.8125 9.125 C4.72582031 9.10695313 3.63914062 9.08890625 2.51953125 9.0703125 C1.27236328 9.03550781 1.27236328 9.03550781 0 9 C0 6.03 0 3.06 0 0 Z " fill="#3E3D39" transform="translate(93,36)"/>
<path d="M0 0 C1.79133978 -0.05391993 3.58313899 -0.09275571 5.375 -0.125 C6.37273437 -0.14820312 7.37046875 -0.17140625 8.3984375 -0.1953125 C11 0 11 0 13 2 C12.44444444 6.55555556 12.44444444 6.55555556 11 8 C9.14712498 8.07226502 7.29166122 8.0838122 5.4375 8.0625 C4.42558594 8.05347656 3.41367188 8.04445313 2.37109375 8.03515625 C1.58863281 8.02355469 0.80617188 8.01195312 0 8 C0 5.36 0 2.72 0 0 Z " fill="#3E3E39" transform="translate(93,23)"/>
<path d="M0 0 C3.29714793 0.32971479 4.6226839 0.6226839 7 3 C7 3.99 7 4.98 7 6 C3.7 6 0.4 6 -3 6 C-2 2 -2 2 0 0 Z " fill="#43453A" transform="translate(128,29)"/>
<path d="M0 0 C3.25696479 0.41755959 4.63443291 0.63443291 7 3 C7 3.99 7 4.98 7 6 C4.03 6 1.06 6 -2 6 C-1.125 1.125 -1.125 1.125 0 0 Z " fill="#404039" transform="translate(300,29)"/>
</svg>
