<?xml version="1.0" encoding="UTF-8"?>
<svg version="1.1" xmlns="http://www.w3.org/2000/svg" width="281" height="73">
<path d="M0 0 C92.73 0 185.46 0 281 0 C281 24.09 281 48.18 281 73 C188.27 73 95.54 73 0 73 C0 48.91 0 24.82 0 0 Z " fill="#3C3938" transform="translate(0,0)"/>
<path d="M0 0 C4.94754234 2.84458286 7.84443678 7.09581034 9.625 12.4375 C10.31394086 19.63201099 10.57035897 25.82339293 6.12109375 31.78515625 C2.0771251 36.2514715 -1.38879479 38.98803878 -7.48828125 39.67578125 C-13.14268407 39.86660479 -16.93511774 39.02483629 -21.375 35.4375 C-26.68927869 30.41924214 -28.43339213 25.28814348 -28.8125 18.125 C-28.70000611 12.22710586 -26.93119203 8.09834024 -23.375 3.4375 C-17.03446206 -2.60110757 -8.02301704 -3.57597331 0 0 Z " fill="#C73835" transform="translate(45.375,19.5625)"/>
<path d="M0 0 C3.17625 -0.0825 6.3525 -0.165 9.625 -0.25 C10.6145166 -0.28641602 11.6040332 -0.32283203 12.62353516 -0.36035156 C18.39655849 -0.43270399 21.64195698 0.10587769 26 4 C27.125 6.875 27.125 6.875 27 10 C25.0625 13.375 25.0625 13.375 23 16 C23.639375 16.309375 24.27875 16.61875 24.9375 16.9375 C27 18 27 18 28 19 C28.5885444 26.18024172 28.5885444 26.18024172 26.25 29.4375 C22.68232799 31.91505001 19.50827554 32.12505305 15.234375 32.09765625 C14.43225586 32.09515869 13.63013672 32.09266113 12.80371094 32.09008789 C11.79598633 32.08098389 10.78826172 32.07187988 9.75 32.0625 C6.5325 32.041875 3.315 32.02125 0 32 C0 21.44 0 10.88 0 0 Z " fill="#C43431" transform="translate(78,23)"/>
<path d="M0 0 C1.98 0 3.96 0 6 0 C6 11.22 6 22.44 6 34 C4.02 34 2.04 34 0 34 C-0.33 33.34 -0.66 32.68 -1 32 C-1.99 32.66 -2.98 33.32 -4 34 C-11.11864407 34.6779661 -11.11864407 34.6779661 -14.4375 32.125 C-18.04785923 27.21491145 -17.57789978 21.90998838 -17 16 C-15.73794781 12.80000986 -14.14962054 10.57481027 -11 9 C-6.0489284 8.56947203 -5.21377818 8.83966637 -1 12 C-0.67 8.04 -0.34 4.08 0 0 Z " fill="#C43431" transform="translate(197,21)"/>
<path d="M0 0 C2.40299246 1.86899413 3.44793745 3.52348427 4.6875 6.3125 C4.6875 8.6225 4.6875 10.9325 4.6875 13.3125 C-0.2625 13.3125 -5.2125 13.3125 -10.3125 13.3125 C-9.6525 15.2925 -8.9925 17.2725 -8.3125 19.3125 C-6.64638095 19.355221 -4.97867115 19.35313832 -3.3125 19.3125 C-2.9825 18.9825 -2.6525 18.6525 -2.3125 18.3125 C0.02047433 18.27157063 2.35455225 18.27008277 4.6875 18.3125 C1.9375 23.1875 1.9375 23.1875 -0.3125 24.3125 C-5.79207298 24.93016523 -9.93839942 25.35681644 -14.4375 21.9375 C-17.88010356 17.11785502 -17.82628179 13.12924382 -17.3125 7.3125 C-13.94572019 -0.59943254 -7.90110333 -2.34897667 0 0 Z " fill="#C33431" transform="translate(225.3125,30.6875)"/>
<path d="M0 0 C2.31 0 4.62 0 7 0 C7.06058594 1.27617187 7.12117187 2.55234375 7.18359375 3.8671875 C7.26799568 5.53647016 7.35264386 7.20574037 7.4375 8.875 C7.47681641 9.71675781 7.51613281 10.55851562 7.55664062 11.42578125 C7.59853516 12.23144531 7.64042969 13.03710938 7.68359375 13.8671875 C7.72025146 14.61081543 7.75690918 15.35444336 7.79467773 16.12060547 C7.89955865 18.08864312 7.89955865 18.08864312 9 20 C11.47266765 19.65555119 11.47266765 19.65555119 14 19 C15.585869 15.828262 15.37866445 12.36486178 15.5625 8.875 C15.60568359 8.12089844 15.64886719 7.36679687 15.69335938 6.58984375 C15.7994832 4.72678112 15.90025001 2.86341476 16 1 C18.31 1 20.62 1 23 1 C23 8.92 23 16.84 23 25 C20.69 25 18.38 25 16 25 C15.67 24.34 15.34 23.68 15 23 C14.34 23.66 13.68 24.32 13 25 C10.94140625 25.30078125 10.94140625 25.30078125 8.5625 25.3125 C7.38880859 25.33763672 7.38880859 25.33763672 6.19140625 25.36328125 C3.48074592 24.91392045 2.65279365 24.15823513 1 22 C0.05862745 19.17588235 -0.11725382 17.47081968 -0.09765625 14.55078125 C-0.09443359 13.70322266 -0.09121094 12.85566406 -0.08789062 11.98242188 C-0.07951172 11.10134766 -0.07113281 10.22027344 -0.0625 9.3125 C-0.05798828 8.41982422 -0.05347656 7.52714844 -0.04882812 6.60742188 C-0.03704983 4.40488013 -0.02060164 2.20247401 0 0 Z " fill="#BC3431" transform="translate(124,30)"/>
<path d="M0 0 C2.55232014 2.18576352 3.84959744 3.91352718 4.31640625 7.28564453 C4.39376157 9.97221499 4.34869969 12.62672963 4.25 15.3125 C4.23195312 16.24384766 4.21390625 17.17519531 4.1953125 18.13476562 C4.14834888 20.42424197 4.08269475 22.71158184 4 25 C2.02 25 0.04 25 -2 25 C-2.06058594 23.79601562 -2.12117187 22.59203125 -2.18359375 21.3515625 C-2.26799732 19.77602923 -2.35264541 18.20050904 -2.4375 16.625 C-2.47681641 15.8309375 -2.51613281 15.036875 -2.55664062 14.21875 C-2.68893404 9.97398779 -2.68893404 9.97398779 -4 6 C-6.41619823 5.74969023 -6.41619823 5.74969023 -9 6 C-11.48044315 9.72066472 -11.44381173 12.86540474 -11.625 17.1875 C-11.66367188 17.93708984 -11.70234375 18.68667969 -11.7421875 19.45898438 C-11.83628216 21.30559199 -11.91922319 23.1527619 -12 25 C-13.98 25 -15.96 25 -18 25 C-18 17.08 -18 9.16 -18 1 C-16.02 1 -14.04 1 -12 1 C-11.67 1.66 -11.34 2.32 -11 3 C-10.484375 2.505 -9.96875 2.01 -9.4375 1.5 C-6.05111671 -0.58392818 -3.90614682 -0.55802097 0 0 Z " fill="#C73431" transform="translate(171,30)"/>
<path d="M0 0 C1.98 0 3.96 0 6 0 C6 11.22 6 22.44 6 34 C4.02 34 2.04 34 0 34 C0 22.78 0 11.56 0 0 Z " fill="#C83431" transform="translate(112,21)"/>
<path d="M0 0 C1.32 0 2.64 0 4 0 C4 1.65 4 3.3 4 5 C2.7934375 5.4640625 2.7934375 5.4640625 1.5625 5.9375 C-0.89080405 6.76335345 -0.89080405 6.76335345 -2 8 C-2.23701239 10.85877909 -2.42219182 13.69883297 -2.5625 16.5625 C-2.60568359 17.36880859 -2.64886719 18.17511719 -2.69335938 19.00585938 C-2.79975262 21.00368805 -2.90040888 23.0018207 -3 25 C-5.31 25 -7.62 25 -10 25 C-10 17.08 -10 9.16 -10 1 C-8.02 1 -6.04 1 -4 1 C-3.67 1.99 -3.34 2.98 -3 4 C-2.5875 3.34 -2.175 2.68 -1.75 2 C-1.1725 1.34 -0.595 0.68 0 0 Z " fill="#C03431" transform="translate(245,30)"/>
<path d="M0 0 C2.5625 0.375 2.5625 0.375 4.375 1.875 C6.0596479 5.42162716 6.13985621 8.51541327 5.5625 12.375 C4.375 14.875 4.375 14.875 2.5625 16.375 C0 16.8125 0 16.8125 -2.4375 16.375 C-4.67984009 13.01148987 -4.70848215 11.75189944 -4.6875 7.8125 C-4.69265625 6.84183594 -4.6978125 5.87117188 -4.703125 4.87109375 C-4.33630413 1.42405643 -3.41801692 0.52584876 0 0 Z " fill="#413938" transform="translate(191.4375,34.625)"/>
<path d="M0 0 C1.93719378 -0.05406122 3.87481921 -0.09282025 5.8125 -0.125 C6.89144531 -0.14820313 7.97039062 -0.17140625 9.08203125 -0.1953125 C12 0 12 0 15 2 C15.375 4.5 15.375 4.5 15 7 C11.47320901 9.35119399 9.97120515 9.21443452 5.8125 9.125 C4.72582031 9.10695313 3.63914062 9.08890625 2.51953125 9.0703125 C1.27236328 9.03550781 1.27236328 9.03550781 0 9 C0 6.03 0 3.06 0 0 Z " fill="#3F3938" transform="translate(85,41)"/>
<path d="M0 0 C2.99073609 2.04629312 3.85081442 3.25407209 4.5625 6.8125 C3.81483695 11.04925729 2.15917943 14.05427864 -1 17 C-3.8125 17.4375 -3.8125 17.4375 -6 17 C-5.46288277 13.13275596 -4.40657902 11.03438225 -2 8 C-2 7.34 -2 6.68 -2 6 C-3.65 6.33 -5.3 6.66 -7 7 C-7.66 5.35 -8.32 3.7 -9 2 C-5.50875983 -0.32749345 -4.10777749 -0.50299316 0 0 Z " fill="#FBF5F4" transform="translate(33,25)"/>
<path d="M0 0 C2.4375 1.5625 2.4375 1.5625 4 4 C3.93733415 7.57195354 3.87304882 9.98144304 1.5 12.75 C1.005 13.1625 0.51 13.575 0 14 C-0.33 14.99 -0.66 15.98 -1 17 C-2.65 17 -4.3 17 -6 17 C-5.48964169 12.6109185 -4.47785723 9.66291938 -2 6 C-3.65 6 -5.3 6 -7 6 C-7.33 4.35 -7.66 2.7 -8 1 C-5.15916359 -0.42041821 -3.14522722 -0.31452272 0 0 Z " fill="#F9EFEE" transform="translate(45,25)"/>
<path d="M0 0 C1.79133978 -0.05391993 3.58313899 -0.09275571 5.375 -0.125 C6.37273437 -0.14820312 7.37046875 -0.17140625 8.3984375 -0.1953125 C11 0 11 0 13 2 C12.44444444 6.55555556 12.44444444 6.55555556 11 8 C9.14712498 8.07226502 7.29166122 8.0838122 5.4375 8.0625 C4.42558594 8.05347656 3.41367188 8.04445313 2.37109375 8.03515625 C1.58863281 8.02355469 0.80617188 8.01195312 0 8 C0 5.36 0 2.72 0 0 Z " fill="#403938" transform="translate(85,28)"/>
<path d="M0 0 C1.2684375 0.12375 1.2684375 0.12375 2.5625 0.25 C4.5625 3.25 4.5625 3.25 4.5625 6.25 C1.5925 6.25 -1.3775 6.25 -4.4375 6.25 C-3.37788848 0.3464501 -3.37788848 0.3464501 0 0 Z " fill="#453938" transform="translate(219.4375,33.75)"/>
<path d="M0 0 C1.65 0 3.3 0 5 0 C5 1.98 5 3.96 5 6 C3.35 6 1.7 6 0 6 C0 4.02 0 2.04 0 0 Z " fill="#F7E9E7" transform="translate(39,45)"/>
<path d="M0 0 C1.65 0 3.3 0 5 0 C5 1.98 5 3.96 5 6 C3.35 6 1.7 6 0 6 C0 4.02 0 2.04 0 0 Z " fill="#F7E9E7" transform="translate(27,45)"/>
</svg>
