<?xml version="1.0" encoding="UTF-8"?>
<svg version="1.1" xmlns="http://www.w3.org/2000/svg" width="258" height="78">
<path d="M0 0 C85.14 0 170.28 0 258 0 C258 25.74 258 51.48 258 78 C172.86 78 87.72 78 0 78 C0 52.26 0 26.52 0 0 Z " fill="#3C3A39" transform="translate(0,0)"/>
<path d="M0 0 C4.86816819 2.6885347 8.76072273 7.13015542 10.51953125 12.44921875 C11.71203968 19.32907506 11.31851884 25.3254145 7.875 31.5 C4.71951705 35.9347328 2.04568488 38.6750524 -3.125 40.5 C-10.16189231 41.17018022 -14.77190218 39.60543352 -20.8125 35.8125 C-25.64117702 30.98382298 -27.37514268 26.32368943 -27.625 19.5 C-27.40554727 14.05482903 -26.58251734 9.80034706 -23.125 5.5 C-16.33603352 -0.74257079 -8.92759629 -3.88975884 0 0 Z " fill="#A28462" transform="translate(63.125,15.5)"/>
<path d="M0 0 C3.01125 -0.061875 6.0225 -0.12375 9.125 -0.1875 C10.06230957 -0.21481201 10.99961914 -0.24212402 11.96533203 -0.27026367 C17.05682897 -0.32069064 20.63185792 0.08110132 25 3 C27.18379446 6.2756917 27.54275639 7.20070529 27 11 C25 13.8125 25 13.8125 23 16 C23.639375 16.309375 24.27875 16.61875 24.9375 16.9375 C27 18 27 18 28 19 C28.59259259 26.22962963 28.59259259 26.22962963 26.125 29.4375 C22.83088801 31.85964117 21.03839432 32.12091031 16.9921875 32.09765625 C16.1038623 32.09515869 15.21553711 32.09266113 14.30029297 32.09008789 C13.16994629 32.08098389 12.03959961 32.07187988 10.875 32.0625 C5.491875 32.0315625 5.491875 32.0315625 0 32 C0 21.44 0 10.88 0 0 Z " fill="#A38463" transform="translate(97,20)"/>
<path d="M0 0 C3.75212276 2.01502889 5.63644095 3.45466142 8 7 C8.65237324 11.37433428 9.03401151 16.01269906 6.94921875 20.01953125 C4.46367483 23.03297831 2.47198643 24.8340756 -1.42578125 25.2734375 C-9.27676809 25.54965625 -9.27676809 25.54965625 -13.125 22.625 C-16.71391724 17.60051587 -16.63974036 13.06438805 -16 7 C-12.32798464 0.57397312 -7.23422706 -1.15469394 0 0 Z " fill="#A38462" transform="translate(146,27)"/>
<path d="M0 0 C3.73738736 1.66106105 5.85257708 3.54597609 8 7 C8.73929819 11.86342241 8.61279817 16.49864447 6.75 21.0625 C4.33629723 23.73481378 2.19544777 24.81259482 -1.3671875 25.37109375 C-5.8312497 25.489301 -9.00735647 25.54314445 -12.5625 22.625 C-16.17321899 18.7365334 -16.2890496 16.44876153 -16.21484375 11.3203125 C-15.80040003 6.84432037 -14.18657582 4.01706499 -10.8125 1.125 C-7.08821435 -0.36471426 -3.95916073 -0.59427565 0 0 Z " fill="#A38462" transform="translate(174,27)"/>
<path d="M0 0 C1.98 0 3.96 0 6 0 C6.33 5.94 6.66 11.88 7 18 C8.03125 16.68 9.0625 15.36 10.125 14 C13.52273726 10.06942004 13.52273726 10.06942004 17.4375 9.5 C18.283125 9.665 19.12875 9.83 20 10 C18.55746343 13.36591866 16.66735273 15.51047079 14 18 C15.42749981 21.79049707 17.16236542 25.27122456 19.125 28.8125 C19.66382813 29.78832031 20.20265625 30.76414062 20.7578125 31.76953125 C21.16773438 32.50558594 21.57765625 33.24164063 22 34 C18.9375 34.625 18.9375 34.625 15 34 C12.84014485 31.53776513 11.17878171 28.98563577 9.48046875 26.1875 C8.99191406 25.465625 8.50335938 24.74375 8 24 C7.34 24 6.68 24 6 24 C6 27.3 6 30.6 6 34 C3.69 34 1.38 34 -1 34 C-1.02465288 29.31860746 -1.04283739 24.63725241 -1.05493164 19.95581055 C-1.05997157 18.36205386 -1.0668035 16.76830181 -1.07543945 15.17456055 C-1.08751999 12.88849747 -1.09323155 10.60249533 -1.09765625 8.31640625 C-1.10281754 7.59973282 -1.10797882 6.88305939 -1.11329651 6.14466858 C-1.11349263 4.42936328 -1.06192007 2.71418734 -1 1 C-0.67 0.67 -0.34 0.34 0 0 Z " fill="#9F8261" transform="translate(188,18)"/>
<path d="M0 0 C8 0 8 0 10.484375 0.89453125 C13.05602903 4.46700939 12.41228927 8.42116472 12.25 12.6875 C12.23195313 13.58017578 12.21390625 14.47285156 12.1953125 15.39257812 C12.14819096 17.59551018 12.07644739 19.79789058 12 22 C8.04 21.67 4.08 21.34 0 21 C0 14.07 0 7.14 0 0 Z " fill="#F8F6F4" transform="translate(42,24)"/>
<path d="M0 0 C0 6.6 0 13.2 0 20 C-4 21 -8 22 -12 23 C-12 16.07 -12 9.14 -12 2 C-8 0 -8 0 0 0 Z " fill="#F9F7F6" transform="translate(68,24)"/>
<path d="M0 0 C2.60186108 2.60186108 2.29810177 3.82354355 2.3125 7.4375 C2.33763672 8.88962891 2.33763672 8.88962891 2.36328125 10.37109375 C2 13 2 13 0.63671875 14.8203125 C-1 16 -1 16 -3.5 16.4375 C-6 16 -6 16 -7.8125 14.5625 C-9.54211675 10.83016911 -9.75976917 7.0446535 -9 3 C-6.37657265 -0.4620009 -4.23769601 -0.45081872 0 0 Z " fill="#403D3A" transform="translate(145,32)"/>
<path d="M0 0 C3.0625 0.4375 3.0625 0.4375 4.9375 2.5 C6.31090388 6.08611012 6.47853355 8.62385915 6.0625 12.4375 C4.9375 14.875 4.9375 14.875 3.0625 16.4375 C0 16.875 0 16.875 -2.9375 16.4375 C-5.17984009 13.07398987 -5.20848215 11.81439944 -5.1875 7.875 C-5.19265625 6.90433594 -5.1978125 5.93367188 -5.203125 4.93359375 C-4.8011145 1.15587748 -3.67999317 0.54808409 0 0 Z " fill="#3F3C3A" transform="translate(169.9375,31.5625)"/>
<path d="M0 0 C1.93719378 -0.05406122 3.87481921 -0.09282025 5.8125 -0.125 C6.89144531 -0.14820313 7.97039062 -0.17140625 9.08203125 -0.1953125 C12 0 12 0 15 2 C15.375 4.5 15.375 4.5 15 7 C11.47320901 9.35119399 9.97120515 9.21443452 5.8125 9.125 C4.72582031 9.10695313 3.63914062 9.08890625 2.51953125 9.0703125 C1.27236328 9.03550781 1.27236328 9.03550781 0 9 C0 6.03 0 3.06 0 0 Z " fill="#3E3B39" transform="translate(104,38)"/>
<path d="M0 0 C1.79133978 -0.05391993 3.58313899 -0.09275571 5.375 -0.125 C6.37273437 -0.14820312 7.37046875 -0.17140625 8.3984375 -0.1953125 C11 0 11 0 13 2 C12.44444444 6.55555556 12.44444444 6.55555556 11 8 C9.14712498 8.07226502 7.29166122 8.0838122 5.4375 8.0625 C4.42558594 8.05347656 3.41367188 8.04445313 2.37109375 8.03515625 C1.58863281 8.02355469 0.80617188 8.01195312 0 8 C0 5.36 0 2.72 0 0 Z " fill="#3F3C39" transform="translate(104,25)"/>
</svg>
