<?xml version="1.0" encoding="UTF-8"?>
<svg version="1.1" xmlns="http://www.w3.org/2000/svg" width="295" height="78">
<path d="M0 0 C97.35 0 194.7 0 295 0 C295 25.74 295 51.48 295 78 C197.65 78 100.3 78 0 78 C0 52.26 0 26.52 0 0 Z " fill="#3B3A39" transform="translate(0,0)"/>
<path d="M0 0 C5.40836151 2.76374421 8.89421299 7.70607648 10.7734375 13.34375 C11.47109703 21.76933045 10.44446419 27.58987465 5.4609375 34.59375 C1.48780234 38.65928366 -1.42900235 40.16979257 -7.1015625 40.71875 C-13.38769848 40.41883893 -18.30851817 38.74109475 -22.6015625 34.03125 C-27.25611406 27.9600958 -27.99800009 21.82076045 -27.2265625 14.34375 C-25.75219799 8.7691455 -22.6677166 4.10633155 -17.9921875 0.73046875 C-12.61017128 -1.96814108 -5.72870889 -1.68846157 0 0 Z " fill="#1DABA4" transform="translate(46.2265625,14.65625)"/>
<path d="M0 0 C3.01125 -0.061875 6.0225 -0.12375 9.125 -0.1875 C10.06230957 -0.21481201 10.99961914 -0.24212402 11.96533203 -0.27026367 C17.08138781 -0.32093387 20.57029547 0.15036141 25 3 C27 5 27 5 27.375 7.8125 C26.92199358 11.66305455 25.6183364 13.21801758 23 16 C23.639375 16.309375 24.27875 16.61875 24.9375 16.9375 C27 18 27 18 28 19 C28.5885444 26.18024172 28.5885444 26.18024172 26.25 29.4375 C22.68232799 31.91505001 19.50827554 32.12505305 15.234375 32.09765625 C14.43225586 32.09515869 13.63013672 32.09266113 12.80371094 32.09008789 C11.79598633 32.08098389 10.78826172 32.07187988 9.75 32.0625 C6.5325 32.041875 3.315 32.02125 0 32 C0 21.44 0 10.88 0 0 Z " fill="#1CA7A1" transform="translate(80,19)"/>
<path d="M0 0 C3.58552881 1.63687185 4.79315055 2.68972583 7 6 C7.14221065 8.60245498 7.18802932 11.09117684 7.125 13.6875 C7.11597656 14.38939453 7.10695312 15.09128906 7.09765625 15.81445312 C7.07413704 17.54311525 7.03826713 19.27160145 7 21 C7.99 21 8.98 21 10 21 C10 22.32 10 23.64 10 25 C6.625 25.1875 6.625 25.1875 3 25 C2.34 24.01 1.68 23.02 1 22 C0.505 22.495 0.01 22.99 -0.5 23.5 C-4.22645843 25.73587506 -6.67911757 25.41151261 -11 25 C-13 24 -13 24 -14 22 C-14.3930429 18.90478713 -14.61295044 16.95763464 -14 14 C-12.0625 11.5 -12.0625 11.5 -9 10 C-5.96693712 9.69567931 -3.03570795 9.76190526 0 10 C-0.33 8.02 -0.66 6.04 -1 4 C-4.24983135 5.08784968 -4.24983135 5.08784968 -7 7 C-8.99958364 7.04080783 -11.00045254 7.04254356 -13 7 C-12.64978759 4.46096004 -12.15988127 3.17906702 -10.4375 1.25 C-6.98316413 -0.52145429 -3.76347898 -0.56115492 0 0 Z " fill="#1CA59F" transform="translate(196,26)"/>
<path d="M0 0 C2.93015518 2.0691008 4.76381186 3.652533 5.40063477 7.28564453 C5.49216823 9.97759515 5.43609353 12.62196398 5.3125 15.3125 C5.28994141 16.24384766 5.26738281 17.17519531 5.24414062 18.13476562 C5.18542078 20.4248396 5.10336858 22.71157875 5 25 C3.02 25 1.04 25 -1 25 C-1.06058594 23.79601562 -1.12117187 22.59203125 -1.18359375 21.3515625 C-1.26799732 19.77602923 -1.35264541 18.20050904 -1.4375 16.625 C-1.47681641 15.8309375 -1.51613281 15.036875 -1.55664062 14.21875 C-1.68893404 9.97398779 -1.68893404 9.97398779 -3 6 C-5.41619823 5.74969023 -5.41619823 5.74969023 -8 6 C-10.48044315 9.72066472 -10.44381173 12.86540474 -10.625 17.1875 C-10.66367188 17.93708984 -10.70234375 18.68667969 -10.7421875 19.45898438 C-10.83628216 21.30559199 -10.91922319 23.1527619 -11 25 C-12.98 25 -14.96 25 -17 25 C-17 17.08 -17 9.16 -17 1 C-15.02 1 -13.04 1 -11 1 C-10.67 1.66 -10.34 2.32 -10 3 C-9.46375 2.505 -8.9275 2.01 -8.375 1.5 C-5.25991849 -0.4674199 -3.62829011 -0.5923739 0 0 Z " fill="#1BAAA4" transform="translate(226,26)"/>
<path d="M0 0 C1.32 0 2.64 0 4 0 C4 1.98 4 3.96 4 6 C5.32 6 6.64 6 8 6 C8 7.32 8 8.64 8 10 C6.68 10 5.36 10 4 10 C4.33 14.95 4.66 19.9 5 25 C6.32 25.33 7.64 25.66 9 26 C9 27.32 9 28.64 9 30 C7.54207116 30.05399736 6.08357288 30.09279177 4.625 30.125 C3.40683594 30.15980469 3.40683594 30.15980469 2.1640625 30.1953125 C0 30 0 30 -2 28 C-2.22705078 26.12060547 -2.22705078 26.12060547 -2.1953125 23.8671875 C-2.18886719 23.06152344 -2.18242187 22.25585938 -2.17578125 21.42578125 C-2.15902344 20.58402344 -2.14226562 19.74226563 -2.125 18.875 C-2.11597656 18.02550781 -2.10695312 17.17601563 -2.09765625 16.30078125 C-2.07405647 14.20040116 -2.03818483 12.10016556 -2 10 C-2.99 10 -3.98 10 -5 10 C-5 8.68 -5 7.36 -5 6 C-4.01 6 -3.02 6 -2 6 C-1.34 4.02 -0.68 2.04 0 0 Z " fill="#1BA9A3" transform="translate(240,21)"/>
<path d="M0 0 C1.98 0 3.96 0 6 0 C6 10.89 6 21.78 6 33 C4.02 33 2.04 33 0 33 C0 22.11 0 11.22 0 0 Z " fill="#1BACA6" transform="translate(158,18)"/>
<path d="M0 0 C1.98 0 3.96 0 6 0 C6 10.89 6 21.78 6 33 C4.02 33 2.04 33 0 33 C0 22.11 0 11.22 0 0 Z " fill="#1BACA6" transform="translate(145,18)"/>
<path d="M0 0 C0 1.98 0 3.96 0 6 C-1.98 6 -3.96 6 -6 6 C-7.23759823 9.71279469 -7.35608897 13.31306346 -7.5625 17.1875 C-7.60568359 17.93708984 -7.64886719 18.68667969 -7.69335938 19.45898438 C-7.79922685 21.30578375 -7.9000976 23.15286834 -8 25 C-9.98 25 -11.96 25 -14 25 C-14 17.08 -14 9.16 -14 1 C-12.02 1 -10.04 1 -8 1 C-7.67 1.66 -7.34 2.32 -7 3 C-6.5875 2.505 -6.175 2.01 -5.75 1.5 C-4 0 -4 0 0 0 Z " fill="#1BA9A3" transform="translate(128,26)"/>
<path d="M0 0 C2.31 0 4.62 0 7 0 C7 7.92 7 15.84 7 24 C4.69 24 2.38 24 0 24 C0 16.08 0 8.16 0 0 Z " fill="#1DA19B" transform="translate(170,27)"/>
<path d="M0 0 C1.98 0 3.96 0 6 0 C6 7.92 6 15.84 6 24 C4.02 24 2.04 24 0 24 C0 16.08 0 8.16 0 0 Z " fill="#1BACA6" transform="translate(132,27)"/>
<path d="M0 0 C1.93719378 -0.05406122 3.87481921 -0.09282025 5.8125 -0.125 C6.89144531 -0.14820313 7.97039062 -0.17140625 9.08203125 -0.1953125 C12 0 12 0 15 2 C15.375 4.5 15.375 4.5 15 7 C11.47320901 9.35119399 9.97120515 9.21443452 5.8125 9.125 C4.72582031 9.10695313 3.63914062 9.08890625 2.51953125 9.0703125 C1.27236328 9.03550781 1.27236328 9.03550781 0 9 C0 6.03 0 3.06 0 0 Z " fill="#3B3C3B" transform="translate(87,37)"/>
<path d="M0 0 C1.98 0 3.96 0 6 0 C6 5.61 6 11.22 6 17 C4.02 17 2.04 17 0 17 C0 11.39 0 5.78 0 0 Z " fill="#E8F4F4" transform="translate(40,20)"/>
<path d="M0 0 C1.98 0 3.96 0 6 0 C6 5.61 6 11.22 6 17 C4.02 17 2.04 17 0 17 C0 11.39 0 5.78 0 0 Z " fill="#E9F5F4" transform="translate(30,20)"/>
<path d="M0 0 C1.79133978 -0.05391993 3.58313899 -0.09275571 5.375 -0.125 C6.37273437 -0.14820312 7.37046875 -0.17140625 8.3984375 -0.1953125 C11 0 11 0 13 2 C12.44444444 6.55555556 12.44444444 6.55555556 11 8 C9.14712498 8.07226502 7.29166122 8.0838122 5.4375 8.0625 C4.42558594 8.05347656 3.41367188 8.04445313 2.37109375 8.03515625 C1.58863281 8.02355469 0.80617188 8.01195312 0 8 C0 5.36 0 2.72 0 0 Z " fill="#3A3D3C" transform="translate(87,24)"/>
<path d="M0 0 C1.134375 0.020625 2.26875 0.04125 3.4375 0.0625 C2.6875 4.8125 2.6875 4.8125 0.4375 7.0625 C-2.1875 6.6875 -2.1875 6.6875 -4.5625 6.0625 C-4.605221 4.39638095 -4.60313832 2.72867115 -4.5625 1.0625 C-3.5625 0.0625 -3.5625 0.0625 0 0 Z " fill="#3A3F3E" transform="translate(192.5625,39.9375)"/>
<path d="M0 0 C1.98 0 3.96 0 6 0 C6 1.98 6 3.96 6 6 C4.02 6 2.04 6 0 6 C0 4.02 0 2.04 0 0 Z " fill="#DFF0F0" transform="translate(40,41)"/>
<path d="M0 0 C1.98 0 3.96 0 6 0 C6 1.98 6 3.96 6 6 C4.02 6 2.04 6 0 6 C0 4.02 0 2.04 0 0 Z " fill="#E5F3F3" transform="translate(30,41)"/>
<path d="M0 0 C1.98 0 3.96 0 6 0 C6 1.65 6 3.3 6 5 C4.02 5 2.04 5 0 5 C0 3.35 0 1.7 0 0 Z " fill="#1EA19B" transform="translate(132,17)"/>
<path d="M0 0 C1.98 0 3.96 0 6 0 C6 1.32 6 2.64 6 4 C4.02 4 2.04 4 0 4 C0 2.68 0 1.36 0 0 Z " fill="#1BA9A3" transform="translate(171,18)"/>
</svg>
