<?xml version="1.0" encoding="UTF-8"?>
<svg version="1.1" xmlns="http://www.w3.org/2000/svg" width="329" height="84">
<path d="M0 0 C108.57 0 217.14 0 329 0 C329 27.72 329 55.44 329 84 C220.43 84 111.86 84 0 84 C0 56.28 0 28.56 0 0 Z " fill="#3C3A39" transform="translate(0,0)"/>
<path d="M0 0 C4.84447464 2.34680432 7.8116491 5.81272979 10.375 10.5 C12.6954265 17.63210846 11.97360532 24.88094856 8.640625 31.5234375 C6.05778258 35.55713585 2.91712053 37.72893974 -1.375 39.875 C-6.81662924 40.92146716 -11.86154219 40.86753306 -16.90625 38.37109375 C-21.7712545 35.0400179 -25.05755144 31.23745321 -26.625 25.5 C-27.65137874 17.31256498 -26.35158021 11.68724818 -21.875 4.8125 C-15.3523905 -1.89129309 -8.64641014 -3.2496575 0 0 Z " fill="#95BA4E" transform="translate(53.625,20.5)"/>
<path d="M0 0 C8.25 0 16.5 0 25 0 C25 1.65 25 3.3 25 5 C19.06 5 13.12 5 7 5 C7 7.64 7 10.28 7 13 C12.61 13 18.22 13 24 13 C24 14.65 24 16.3 24 18 C18.39 18 12.78 18 7 18 C7 20.97 7 23.94 7 27 C13.27 27 19.54 27 26 27 C26 28.65 26 30.3 26 32 C17.42 32 8.84 32 0 32 C0 21.44 0 10.88 0 0 Z " fill="#92B64A" transform="translate(88,24)"/>
<path d="M0 0 C4.14623807 1.79042098 6.17613802 3.87231236 8 8 C8 9.98 8 11.96 8 14 C3.05 14 -1.9 14 -7 14 C-6.34 15.98 -5.68 17.96 -5 20 C-3.33388095 20.042721 -1.66617115 20.04063832 0 20 C0.33 19.67 0.66 19.34 1 19 C2.99958364 18.95919217 5.00045254 18.95745644 7 19 C5.63016497 22.16115776 5.0109362 22.9927092 2 25 C-1.3915846 25.5461026 -4.60763982 25.54104628 -8 25 C-11.34625024 22.47323961 -12.67977847 20.96066458 -14 17 C-14.494097 12.89899494 -14.95235971 8.7767905 -12.953125 5.046875 C-8.91640685 0.15532242 -6.20543559 -0.4207075 0 0 Z " fill="#92B74A" transform="translate(235,31)"/>
<path d="M0 0 C3.5386994 1.65139305 4.81070153 2.71605229 7 6 C7.25760279 8.69452521 7.08900053 11.28548375 7 14 C2.05 14 -2.9 14 -8 14 C-7.34 15.98 -6.68 17.96 -6 20 C-4.00045254 20.04254356 -1.99958364 20.04080783 0 20 C0.33 19.67 0.66 19.34 1 19 C2.99958364 18.95919217 5.00045254 18.95745644 7 19 C4.25 23.875 4.25 23.875 2 25 C-7.27809847 26.1803056 -7.27809847 26.1803056 -10.80078125 23.765625 C-14.71855377 19.09665716 -15.40206515 14.93046101 -15 9 C-13.71482267 5.48267258 -12.62752512 3.5229376 -9.75 1.125 C-6.23834029 -0.31158806 -3.76692609 -0.40359922 0 0 Z " fill="#92B64A" transform="translate(184,31)"/>
<path d="M0 0 C2.93015518 2.0691008 4.76381186 3.652533 5.40063477 7.28564453 C5.49216823 9.97759515 5.43609353 12.62196398 5.3125 15.3125 C5.28994141 16.24384766 5.26738281 17.17519531 5.24414062 18.13476562 C5.18542078 20.4248396 5.10336858 22.71157875 5 25 C3.02 25 1.04 25 -1 25 C-1.06058594 23.79601562 -1.12117188 22.59203125 -1.18359375 21.3515625 C-1.26799732 19.77602923 -1.35264541 18.20050904 -1.4375 16.625 C-1.47681641 15.8309375 -1.51613281 15.036875 -1.55664062 14.21875 C-1.68893404 9.97398779 -1.68893404 9.97398779 -3 6 C-5.41619823 5.74969023 -5.41619823 5.74969023 -8 6 C-10.48044315 9.72066472 -10.44381173 12.86540474 -10.625 17.1875 C-10.66367188 17.93708984 -10.70234375 18.68667969 -10.7421875 19.45898438 C-10.83628216 21.30559199 -10.91922319 23.1527619 -11 25 C-12.98 25 -14.96 25 -17 25 C-17 17.08 -17 9.16 -17 1 C-15.02 1 -13.04 1 -11 1 C-10.67 1.66 -10.34 2.32 -10 3 C-9.46375 2.505 -8.9275 2.01 -8.375 1.5 C-5.25991849 -0.4674199 -3.62829011 -0.5923739 0 0 Z " fill="#94BA4A" transform="translate(265,31)"/>
<path d="M0 0 C2.75 -0.3125 2.75 -0.3125 6 0 C10 4 10 4 10 7 C10.66 7 11.32 7 12 7 C12.28875 6.21625 12.5775 5.4325 12.875 4.625 C14 2 14 2 16 0 C19.125 -0.125 19.125 -0.125 22 0 C20.94670765 3.07210269 19.9428383 5.06696084 17.8125 7.5625 C15.7586734 9.75113931 15.7586734 9.75113931 16.1953125 11.89453125 C17.13966954 14.36544604 18.40695484 16.06633155 20.0625 18.125 C23 21.78823529 23 21.78823529 23 24 C20.69 24 18.38 24 16 24 C15.0234375 22.20963542 14.046875 20.41927083 13.0703125 18.62890625 C12.08589976 16.83381685 12.08589976 16.83381685 10 16 C9.71125 16.763125 9.4225 17.52625 9.125 18.3125 C8 21 8 21 6 24 C2.375 24.1875 2.375 24.1875 -1 24 C2.70588235 17.35496957 2.70588235 17.35496957 4.8125 14.8125 C6.22437588 13.09199598 6.22437588 13.09199598 5.734375 11.11328125 C4.93681911 8.8181869 3.91935476 7.29170103 2.4375 5.375 C0 2.21246459 0 2.21246459 0 0 Z " fill="#92B64A" transform="translate(118,32)"/>
<path d="M0 0 C3.375 1.1875 3.375 1.1875 6 3 C6.875 5.6875 6.875 5.6875 7 8 C5.02 8 3.04 8 1 8 C0.67 7.34 0.34 6.68 0 6 C-1.98 6 -3.96 6 -6 6 C-7.58493084 9.16986168 -7.2940042 12.54032261 -7 16 C-6.13734032 18.40557853 -6.13734032 18.40557853 -5 20 C-3.02 20 -1.04 20 1 20 C1 19.01 1 18.02 1 17 C3.31 17 5.62 17 8 17 C6.71872222 20.9506065 5.5541693 22.83388631 2 25 C-2.8278319 25.87136478 -6.82380236 25.69611697 -11.0625 23.1875 C-14.61888683 19.17222454 -14.38656281 14.86997993 -14.359375 9.73828125 C-13.79931339 5.47085526 -12.14910247 3.84918795 -9 1 C-5.92805092 -0.53597454 -3.39755707 -0.2265038 0 0 Z " fill="#92B64A" transform="translate(158,31)"/>
<path d="M0 0 C0.99 0 1.98 0 3 0 C3 2.97 3 5.94 3 9 C3.804375 8.979375 4.60875 8.95875 5.4375 8.9375 C8 9 8 9 9 10 C8.93579251 11.62853535 8.7987936 13.25449212 8.625 14.875 C8.53476562 15.75929688 8.44453125 16.64359375 8.3515625 17.5546875 C8 20 8 20 7 23 C5.41676312 23.027193 3.83338938 23.04648306 2.25 23.0625 C0.92742188 23.07990234 0.92742188 23.07990234 -0.421875 23.09765625 C-2.7818838 23.00826198 -4.74498524 22.66912821 -7 22 C-7.79102579 10.978374 -7.79102579 10.978374 -4.625 7.0625 C-3.75875 6.381875 -2.8925 5.70125 -2 5 C-0.680982 2.33466965 -0.680982 2.33466965 0 0 Z " fill="#FCFCFA" transform="translate(48,27)"/>
<path d="M0 0 C2.31 0 4.62 0 7 0 C7 11.22 7 22.44 7 34 C4.69 34 2.38 34 0 34 C0 22.78 0 11.56 0 0 Z " fill="#8CAE48" transform="translate(209,22)"/>
<path d="M0 0 C2.31 0 4.62 0 7 0 C7 11.22 7 22.44 7 34 C4.69 34 2.38 34 0 34 C0 22.78 0 11.56 0 0 Z " fill="#8CAE48" transform="translate(196,22)"/>
<path d="M0 0 C1.32 0 2.64 0 4 0 C4 1.98 4 3.96 4 6 C5.32 6 6.64 6 8 6 C8 7.32 8 8.64 8 10 C6.68 10 5.36 10 4 10 C4.33 14.95 4.66 19.9 5 25 C6.32 25.33 7.64 25.66 9 26 C9 27.32 9 28.64 9 30 C7.54207116 30.05399736 6.08357288 30.09279177 4.625 30.125 C3.40683594 30.15980469 3.40683594 30.15980469 2.1640625 30.1953125 C0 30 0 30 -2 28 C-2.22705078 26.12060547 -2.22705078 26.12060547 -2.1953125 23.8671875 C-2.18886719 23.06152344 -2.18242187 22.25585938 -2.17578125 21.42578125 C-2.15902344 20.58402344 -2.14226562 19.74226563 -2.125 18.875 C-2.11597656 18.02550781 -2.10695313 17.17601563 -2.09765625 16.30078125 C-2.07405647 14.20040116 -2.03818483 12.10016556 -2 10 C-2.99 10 -3.98 10 -5 10 C-5 8.68 -5 7.36 -5 6 C-4.01 6 -3.02 6 -2 6 C-1.34 4.02 -0.68 2.04 0 0 Z " fill="#94B94A" transform="translate(279,26)"/>
<path d="M0 0 C1.32 0 2.64 0 4 0 C4 3.96 4 7.92 4 12 C2.68 12 1.36 12 0 12 C0 8.04 0 4.08 0 0 Z " fill="#FFFFFF" transform="translate(35,37)"/>
<path d="M0 0 C0.33 1.65 0.66 3.3 1 5 C-1.97 5 -4.94 5 -8 5 C-7.625 2.5625 -7.625 2.5625 -7 0 C-4.3333581 -1.33332095 -2.83319697 -0.67102033 0 0 Z " fill="#41413A" transform="translate(184,36)"/>
<path d="M0 0 C3.25696479 0.41755959 4.63443291 0.63443291 7 3 C7 3.99 7 4.98 7 6 C4.03 6 1.06 6 -2 6 C-1.125 1.125 -1.125 1.125 0 0 Z " fill="#404039" transform="translate(230,35)"/>
</svg>
