<?xml version="1.0" encoding="UTF-8"?>
<svg version="1.1" xmlns="http://www.w3.org/2000/svg" width="225" height="68">
<path d="M0 0 C74.25 0 148.5 0 225 0 C225 22.44 225 44.88 225 68 C150.75 68 76.5 68 0 68 C0 45.56 0 23.12 0 0 Z " fill="#3C3A39" transform="translate(0,0)"/>
<path d="M0 0 C4.45436478 3.45516765 7.34136088 7.61891295 8.37109375 13.1953125 C8.62873557 19.37871614 7.52992837 24.40962506 3.86328125 29.4453125 C-0.57748659 33.7722145 -5.2036155 35.72836151 -11.38671875 35.9453125 C-17.64922259 35.81854117 -21.60240597 33.66918478 -26.13671875 29.4453125 C-29.78212046 25.57330474 -30.4358135 21.74299194 -30.69921875 16.5078125 C-30.48747785 10.6739857 -29.10346131 6.74348003 -25.13671875 2.4453125 C-17.76338664 -3.42325795 -8.38663229 -4.8067672 0 0 Z " fill="#95AD8A" transform="translate(46.13671875,15.5546875)"/>
<path d="M0 0 C2.31 0 4.62 0 7 0 C7 11.22 7 22.44 7 34 C5.02 34 3.04 34 1 34 C0.67 33.01 0.34 32.02 0 31 C-0.33 31.495 -0.66 31.99 -1 32.5 C-3.61129242 34.45846931 -5.85722956 34.47523003 -9.0625 34.36328125 C-12.00263071 33.81200674 -13.26886176 32.354348 -15 30 C-16.39865903 27.20268195 -16.24537267 24.80715441 -16.3125 21.6875 C-16.34988281 20.55699219 -16.38726562 19.42648438 -16.42578125 18.26171875 C-15.91605818 14.35695943 -14.72790817 12.77851871 -12 10 C-9.22899606 8.61449803 -7.0665294 8.8122533 -4 9 C-3.01 9.66 -2.02 10.32 -1 11 C-0.67 7.37 -0.34 3.74 0 0 Z " fill="#90A785" transform="translate(185,13)"/>
<path d="M0 0 C2.70842036 2.06695238 3.49493222 3.55624923 4.375 6.8125 C2.395 7.4725 0.415 8.1325 -1.625 8.8125 C-2.12 8.1525 -2.615 7.4925 -3.125 6.8125 C-6.16992654 4.37655877 -7.90562131 4.14735053 -11.71875 4.375 C-13.88114077 4.73074025 -13.88114077 4.73074025 -16.125 6.75 C-18.14720894 10.87867659 -18.32903573 14.293573 -17.625 18.8125 C-16.4660416 21.23119578 -15.50177904 22.93572096 -13.625 24.8125 C-11.98159133 24.91104655 -10.3338539 24.94222411 -8.6875 24.9375 C-7.79160156 24.94007812 -6.89570312 24.94265625 -5.97265625 24.9453125 C-3.60344445 24.96671413 -3.60344445 24.96671413 -1.625 23.8125 C-0.96944881 21.28516765 -0.96944881 21.28516765 -0.625 18.8125 C-3.265 18.8125 -5.905 18.8125 -8.625 18.8125 C-8.625 17.1625 -8.625 15.5125 -8.625 13.8125 C-3.675 13.8125 1.275 13.8125 6.375 13.8125 C7.30535051 24.39523707 7.30535051 24.39523707 5.12109375 27.72265625 C-0.22252188 31.68131751 -6.69261776 31.58448804 -13.109375 31.3671875 C-17.30984048 30.70444739 -19.4793726 29.60609004 -22.42578125 26.61328125 C-26.14557449 21.0275331 -26.39196849 15.33173215 -25.625 8.8125 C-20.56083844 -1.90014946 -10.53976026 -3.45268008 0 0 Z " fill="#90A886" transform="translate(101.625,16.1875)"/>
<path d="M0 0 C3.33938234 2.32980163 4.35927231 4.03789777 5.6875 7.875 C6.2484452 13.11048855 5.51549347 16.43101027 2.6875 20.875 C-1.23083405 24.51654224 -4.52909948 24.37764642 -9.6796875 24.2265625 C-13.29049234 23.74440755 -14.98259725 22.65585167 -17.3125 19.875 C-19.69847667 15.78475429 -19.91261492 11.49776027 -19.3125 6.875 C-15.71550353 -1.64420216 -8.07968318 -2.74404334 0 0 Z " fill="#91A886" transform="translate(131.3125,23.125)"/>
<path d="M0 0 C3.52220364 1.26267677 5.44467775 2.35212404 7.875 5.1875 C9.9020014 10.25500351 9.62679207 14.33900101 7.75 19.3125 C5.96409384 22.0551416 4.76655741 23.31390196 2 25 C-3.03894868 25.83356677 -7.56049632 25.79319591 -12.0625 23.3125 C-15.04804889 19.74910294 -15.87183312 17.17486307 -16.375 12.5625 C-15.84197709 7.49878239 -13.65275855 4.77081274 -10.25 1.125 C-6.86630053 -0.56684973 -3.66151204 -0.51501036 0 0 Z " fill="#91A986" transform="translate(156,22)"/>
<path d="M0 0 C1.32 0.99 2.64 1.98 4 3 C2.67879172 5.93230193 1.25361803 7.98664899 -1.0390625 10.234375 C-1.90917969 11.09482422 -1.90917969 11.09482422 -2.796875 11.97265625 C-3.40015625 12.55917969 -4.0034375 13.14570312 -4.625 13.75 C-5.23601563 14.35199219 -5.84703125 14.95398438 -6.4765625 15.57421875 C-7.97988624 17.05405305 -9.48934856 18.52764676 -11 20 C-14.21524305 18.59155282 -16.32183868 16.89655214 -18.75 14.375 C-19.36359375 13.74335937 -19.9771875 13.11171875 -20.609375 12.4609375 C-21.06828125 11.97882812 -21.5271875 11.49671875 -22 11 C-21.34 9.68 -20.68 8.36 -20 7 C-16.73045798 7.56371414 -15.17424117 8.49962266 -13 11 C-9.31930113 9.46356148 -7.01224796 7.21849055 -4.25 4.375 C-3.45078125 3.55773437 -2.6515625 2.74046875 -1.828125 1.8984375 C-1.22484375 1.27195312 -0.6215625 0.64546875 0 0 Z " fill="#FDFDFD" transform="translate(44,22)"/>
<path d="M0 0 C3.5 -0.3125 3.5 -0.3125 7 0 C9.60186108 2.60186108 9.29810177 3.82354355 9.3125 7.4375 C9.33763672 8.88962891 9.33763672 8.88962891 9.36328125 10.37109375 C9 13 9 13 7.63671875 14.8203125 C6 16 6 16 3.5 16.4375 C1 16 1 16 -0.8125 14.5625 C-2.55535216 10.80160849 -2.57903312 7.08331147 -2 3 C-1.34 2.01 -0.68 1.02 0 0 Z " fill="#3E3D3B" transform="translate(149,27)"/>
<path d="M0 0 C3.5 -0.375 3.5 -0.375 7 0 C9.47709629 3.71564444 9.53601925 6.69509544 9 11 C7.8125 14 7.8125 14 6 16 C3.5 16.5 3.5 16.5 1 16 C-1.26699649 14.31192624 -1.93105122 13.45076193 -2.36328125 10.625 C-2.34652344 9.75875 -2.32976562 8.8925 -2.3125 8 C-2.30863281 7.13375 -2.30476563 6.2675 -2.30078125 5.375 C-2 3 -2 3 0 0 Z " fill="#3E3C3A" transform="translate(121,27)"/>
<path d="M0 0 C3 -0.3125 3 -0.3125 6 0 C8 2 8 2 8.265625 4.49609375 C8.26046875 5.46675781 8.2553125 6.43742187 8.25 7.4375 C8.25515625 8.40558594 8.2603125 9.37367187 8.265625 10.37109375 C8 13 8 13 6 16 C3.5625 16.4375 3.5625 16.4375 1 16 C-1.30163762 14.17456326 -1.91495505 12.73617033 -2.25 9.8359375 C-2.41202978 3.61804467 -2.41202978 3.61804467 0 0 Z " fill="#403F3C" transform="translate(177,27)"/>
</svg>
