<?xml version="1.0" encoding="UTF-8"?>
<svg version="1.1" xmlns="http://www.w3.org/2000/svg" width="355" height="80">
<path d="M0 0 C117.15 0 234.3 0 355 0 C355 26.4 355 52.8 355 80 C237.85 80 120.7 80 0 80 C0 53.6 0 27.2 0 0 Z " fill="#3C3A39" transform="translate(0,0)"/>
<path d="M0 0 C6.14566381 2.53797038 10.39124351 6.62161136 13.25 12.625 C14.85604035 19.85218156 15.06937667 26.745226 11.265625 33.28125 C7.82836663 37.94913174 3.70349415 40.71962376 -2 42 C-7.86694932 42.65188326 -12.33567593 41.57849964 -17 38 C-22.97563126 30.71800779 -24.66960089 25.33651055 -24 16 C-22.92017926 10.18481859 -20.38399296 6.88471919 -15.81640625 3.2265625 C-10.62435109 -0.27947045 -6.20071382 -0.91241735 0 0 Z " fill="#5B89AD" transform="translate(45,17)"/>
<path d="M0 0 C2.97 0 5.94 0 9 0 C12.00442075 6.45950461 13.97912498 13.17826451 16 20 C18.34532558 15.63191511 19.88027789 11.40312218 21.1875 6.625 C21.53167969 5.37976563 21.87585938 4.13453125 22.23046875 2.8515625 C22.48441406 1.91054688 22.73835938 0.96953125 23 0 C25.97 0 28.94 0 32 0 C32 10.56 32 21.12 32 32 C30.02 32 28.04 32 26 32 C25.505 22.595 25.505 22.595 25 13 C23.02 19.27 21.04 25.54 19 32 C17.35 32 15.7 32 14 32 C11.69 25.07 9.38 18.14 7 11 C6.67 17.93 6.34 24.86 6 32 C4.02 32 2.04 32 0 32 C0 21.44 0 10.88 0 0 Z " fill="#5A87AA" transform="translate(216,22)"/>
<path d="M0 0 C2.70842036 2.06695238 3.49493222 3.55624923 4.375 6.8125 C2.395 7.4725 0.415 8.1325 -1.625 8.8125 C-2.12 8.1525 -2.615 7.4925 -3.125 6.8125 C-6.16992654 4.37655877 -7.90562131 4.14735053 -11.71875 4.375 C-13.88114077 4.73074025 -13.88114077 4.73074025 -16.125 6.75 C-18.14720894 10.87867659 -18.32903573 14.293573 -17.625 18.8125 C-16.4660416 21.23119578 -15.50177904 22.93572096 -13.625 24.8125 C-12.1694063 24.91108603 -10.70892081 24.94222143 -9.25 24.9375 C-8.06277344 24.94136719 -8.06277344 24.94136719 -6.8515625 24.9453125 C-4.45156504 24.89867666 -4.45156504 24.89867666 -1.625 23.8125 C-1.295 22.1625 -0.965 20.5125 -0.625 18.8125 C-3.265 18.8125 -5.905 18.8125 -8.625 18.8125 C-8.625 17.1625 -8.625 15.5125 -8.625 13.8125 C-4.005 13.8125 0.615 13.8125 5.375 13.8125 C5.375 18.1025 5.375 22.3925 5.375 26.8125 C-1.6609947 31.31553661 -8.36442305 32.10597112 -16.625 30.8125 C-20.83631455 28.79989141 -22.93083515 26.14046754 -25.0625 22.0625 C-26.09191329 16.11477877 -26.66946499 10.98177343 -24 5.4375 C-17.17841795 -2.10214332 -9.5717477 -3.13557252 0 0 Z " fill="#5A87AA" transform="translate(106.625,23.1875)"/>
<path d="M0 0 C3.15689734 1.60714774 5.19415756 2.97438234 7.375 5.75 C8.73494071 10.64578657 8.51165247 14.64412095 6.75 19.3125 C4.96409384 22.0551416 3.76655741 23.31390196 1 25 C-4.03894868 25.83356677 -8.56049632 25.79319591 -13.0625 23.3125 C-16.07507167 19.71684994 -16.89557775 17.16952914 -17.3125 12.5 C-16.86992522 7.54316251 -15.17905715 5.28309161 -11.875 1.6875 C-7.86248649 -0.66767097 -4.54686069 -0.80050364 0 0 Z " fill="#5A86A9" transform="translate(270,29)"/>
<path d="M0 0 C3.58552881 1.63687185 4.79315055 2.68972583 7 6 C7.14221065 8.60245498 7.18802932 11.09117684 7.125 13.6875 C7.11597656 14.38939453 7.10695312 15.09128906 7.09765625 15.81445312 C7.07413704 17.54311525 7.03826713 19.27160145 7 21 C7.99 21 8.98 21 10 21 C10 22.32 10 23.64 10 25 C3.375 25.25 3.375 25.25 0 23 C-0.99 23.66 -1.98 24.32 -3 25 C-6.48933044 25.54169041 -9.81374429 25.59312786 -13 24 C-14.64234374 20.71531251 -14.73064507 17.52553978 -14 14 C-12.0625 11.5 -12.0625 11.5 -9 10 C-5.96693712 9.69567931 -3.03570795 9.76190526 0 10 C-0.33 8.02 -0.66 6.04 -1 4 C-4.24983135 5.08784968 -4.24983135 5.08784968 -7 7 C-8.99958364 7.04080783 -11.00045254 7.04254356 -13 7 C-12.64978759 4.46096004 -12.15988127 3.17906702 -10.4375 1.25 C-6.98316413 -0.52145429 -3.76347898 -0.56115492 0 0 Z " fill="#5A86A9" transform="translate(175,29)"/>
<path d="M0 0 C2.46615278 1.84961459 3.49544028 3.48974064 4.75 6.3125 C4.75 8.6225 4.75 10.9325 4.75 13.3125 C-0.2 13.3125 -5.15 13.3125 -10.25 13.3125 C-9.59 15.2925 -8.93 17.2725 -8.25 19.3125 C-5.83354218 19.47937448 -5.83354218 19.47937448 -3.25 19.3125 C-2.59 18.6525 -1.93 17.9925 -1.25 17.3125 C1.875 17.6875 1.875 17.6875 4.75 18.3125 C2 23.1875 2 23.1875 -0.25 24.3125 C-5.72957298 24.93016523 -9.87589942 25.35681644 -14.375 21.9375 C-17.80197813 17.13973062 -17.89952422 13.11373003 -17.25 7.3125 C-15.62915526 4.07081051 -14.30801565 2.11513256 -11.4375 -0.0625 C-7.55296684 -1.17236662 -3.86539426 -1.18109269 0 0 Z " fill="#5A87AA" transform="translate(152.25,29.6875)"/>
<path d="M0 0 C3.5386994 1.65139305 4.81070153 2.71605229 7 6 C7.25760279 8.69452521 7.08900053 11.28548375 7 14 C2.05 14 -2.9 14 -8 14 C-7.67 15.98 -7.34 17.96 -7 20 C-4.66705225 20.04241723 -2.33297433 20.04092937 0 20 C0.33 19.67 0.66 19.34 1 19 C2.99958364 18.95919217 5.00045254 18.95745644 7 19 C4.25 23.875 4.25 23.875 2 25 C-7.27809847 26.1803056 -7.27809847 26.1803056 -10.80078125 23.765625 C-14.71855377 19.09665716 -15.40206515 14.93046101 -15 9 C-13.71482267 5.48267258 -12.62752512 3.5229376 -9.75 1.125 C-6.23834029 -0.31158806 -3.76692609 -0.40359922 0 0 Z " fill="#5A87AB" transform="translate(322,29)"/>
<path d="M0 0 C2.31 0 4.62 0 7 0 C8.65 4.95 10.3 9.9 12 15 C14.04650391 11.93024413 14.99704565 9.30915848 16.125 5.8125 C16.47820312 4.72582031 16.83140625 3.63914063 17.1953125 2.51953125 C17.46085937 1.68808594 17.72640625 0.85664063 18 0 C20.31 0 22.62 0 25 0 C23.87942681 3.25154331 22.75277056 6.50094672 21.625 9.75 C21.30789063 10.67039062 20.99078125 11.59078125 20.6640625 12.5390625 C20.2 13.87324219 20.2 13.87324219 19.7265625 15.234375 C19.30238037 16.45979004 19.30238037 16.45979004 18.86962891 17.70996094 C18.04060935 19.89306129 17.08327115 21.93306884 16 24 C13.36 24 10.72 24 8 24 C5.36 16.08 2.72 8.16 0 0 Z " fill="#5A87AB" transform="translate(280,30)"/>
<path d="M0 0 C1.65 0 3.3 0 5 0 C5 1.98 5 3.96 5 6 C6.32 6 7.64 6 9 6 C9 7.32 9 8.64 9 10 C7.68 10 6.36 10 5 10 C5.33 14.95 5.66 19.9 6 25 C7.32 25.33 8.64 25.66 10 26 C10 27.32 10 28.64 10 30 C8.56344146 30.08131463 7.1255517 30.13933559 5.6875 30.1875 C4.48673828 30.23970703 4.48673828 30.23970703 3.26171875 30.29296875 C0.43045544 29.9262248 -0.24608473 29.20669907 -2 27 C-2.34057617 25.09887695 -2.34057617 25.09887695 -2.29296875 22.98828125 C-2.28330078 22.23095703 -2.27363281 21.47363281 -2.26367188 20.69335938 C-2.23853516 19.90767578 -2.21339844 19.12199219 -2.1875 18.3125 C-2.16719727 17.11657227 -2.16719727 17.11657227 -2.14648438 15.89648438 C-2.11117089 13.93070033 -2.05736447 11.96526418 -2 10 C-2.99 10 -3.98 10 -5 10 C-5 8.35 -5 6.7 -5 5 C-3.68 5 -2.36 5 -1 5 C-0.67 3.35 -0.34 1.7 0 0 Z " fill="#5983A5" transform="translate(190,24)"/>
<path d="M0 0 C1.98 0 3.96 0 6 0 C6.66 0.66 7.32 1.32 8 2 C8.66 1.34 9.32 0.68 10 0 C12.625 -0.125 12.625 -0.125 15 0 C15 1.98 15 3.96 15 6 C12.69 6.66 10.38 7.32 8 8 C7.67 13.61 7.34 19.22 7 25 C4.69 25 2.38 25 0 25 C0 16.75 0 8.5 0 0 Z " fill="#5781A1" transform="translate(118,29)"/>
<path d="M0 0 C3.5 -0.3125 3.5 -0.3125 7 0 C9.50009087 2.50009087 9.29712739 3.4212859 9.3125 6.875 C9.32925781 7.73867188 9.34601563 8.60234375 9.36328125 9.4921875 C8.93089229 12.47706611 8.07097918 13.83511006 6 16 C3.5 16.5 3.5 16.5 1 16 C-1.30163762 14.17456326 -1.91495505 12.73617033 -2.25 9.8359375 C-2.41202978 3.61804467 -2.41202978 3.61804467 0 0 Z " fill="#3C3C3C" transform="translate(262,34)"/>
<path d="M0 0 C1.98 0 3.96 0 6 0 C6 5.61 6 11.22 6 17 C4.02 17 2.04 17 0 17 C0 11.39 0 5.78 0 0 Z " fill="#EFF4F6" transform="translate(37,24)"/>
<path d="M0 0 C1.134375 0.020625 2.26875 0.04125 3.4375 0.0625 C2.6875 4.8125 2.6875 4.8125 0.4375 7.0625 C-2.1875 6.6875 -2.1875 6.6875 -4.5625 6.0625 C-4.605221 4.39638095 -4.60313832 2.72867115 -4.5625 1.0625 C-3.5625 0.0625 -3.5625 0.0625 0 0 Z " fill="#3D3E3F" transform="translate(171.5625,42.9375)"/>
<path d="M0 0 C0.33 1.65 0.66 3.3 1 5 C-1.97 5 -4.94 5 -8 5 C-7.625 2.5625 -7.625 2.5625 -7 0 C-4.3333581 -1.33332095 -2.83319697 -0.67102033 0 0 Z " fill="#3D3E3F" transform="translate(322,34)"/>
<path d="M0 0 C2.00720923 0.28674418 4.0085944 0.61866701 6 1 C6.33 2.65 6.66 4.3 7 6 C4.03 6 1.06 6 -2 6 C-1.125 1.125 -1.125 1.125 0 0 Z " fill="#3D3E3F" transform="translate(144,33)"/>
<path d="M0 0 C1.67542976 0.28604898 3.34385343 0.61781233 5 1 C5 2.65 5 4.3 5 6 C3.02 6 1.04 6 -1 6 C-1.042721 4.33388095 -1.04063832 2.66617115 -1 1 C-0.67 0.67 -0.34 0.34 0 0 Z " fill="#ECF0F4" transform="translate(38,44)"/>
</svg>
