<?xml version="1.0" encoding="UTF-8"?>
<svg version="1.1" xmlns="http://www.w3.org/2000/svg" width="350" height="78">
<path d="M0 0 C115.5 0 231 0 350 0 C350 25.74 350 51.48 350 78 C234.5 78 119 78 0 78 C0 52.26 0 26.52 0 0 Z " fill="#3D3A39" transform="translate(0,0)"/>
<path d="M0 0 C4.34980744 3.0931964 8.40352749 7.18205498 10.8125 12 C11.54424235 19.12549105 11.16306499 25.13272428 6.8125 31 C2.36456662 35.65697463 -1.56334381 37.15880842 -7.9375 37.3125 C-13.67562142 37.25705921 -16.65167596 36.49636436 -21.1875 33 C-26.09520511 27.69437286 -27.6244621 23.65503427 -27.42578125 16.5234375 C-26.75643074 9.43490584 -23.31616374 5.76777278 -18.125 1.3828125 C-12.94632112 -2.31326074 -5.83389697 -1.83024219 0 0 Z " fill="#F2BD46" transform="translate(46.1875,16)"/>
<path d="M0 0 C3.57455864 0.98545195 5.04322478 2.71677704 7.28125 5.62890625 C7.80562831 8.42462485 8.06973909 10.653473 8.09375 13.44140625 C8.11888672 14.13427734 8.14402344 14.82714844 8.16992188 15.54101562 C8.22838263 17.23637747 8.25778047 18.93269912 8.28125 20.62890625 C9.27125 20.95890625 10.26125 21.28890625 11.28125 21.62890625 C11.28125 22.94890625 11.28125 24.26890625 11.28125 25.62890625 C10.0025 25.69078125 8.72375 25.75265625 7.40625 25.81640625 C6.32730469 25.86861328 6.32730469 25.86861328 5.2265625 25.921875 C4.58460938 25.82519531 3.94265625 25.72851562 3.28125 25.62890625 C2.62125 24.63890625 1.96125 23.64890625 1.28125 22.62890625 C0.78625 23.12390625 0.29125 23.61890625 -0.21875 24.12890625 C-3.97523836 26.38279927 -6.36454381 26.11270694 -10.71875 25.62890625 C-13.42290801 23.43177786 -13.66367745 22.06948664 -14.09375 18.62890625 C-13.67864664 15.30807939 -13.06485397 13.97501022 -10.71875 11.62890625 C-7.83663698 10.66820191 -6.02024956 10.52308742 -3.03125 10.56640625 C-1.81888672 10.57994141 -1.81888672 10.57994141 -0.58203125 10.59375 C0.34029297 10.61115234 0.34029297 10.61115234 1.28125 10.62890625 C0.62125 8.97890625 -0.03875 7.32890625 -0.71875 5.62890625 C-2.03875 5.62890625 -3.35875 5.62890625 -4.71875 5.62890625 C-5.04875 6.61890625 -5.37875 7.60890625 -5.71875 8.62890625 C-8.02875 8.62890625 -10.33875 8.62890625 -12.71875 8.62890625 C-12.40900617 5.73796387 -11.67704554 4.58198874 -9.71875 2.37890625 C-6.23363196 0.34592073 -3.95107668 0.11825406 0 0 Z " fill="#E4B859" transform="translate(133.71875,23.37109375)"/>
<path d="M0 0 C3.65783532 2.73292553 4.85763198 4.2409661 5.70703125 8.76953125 C5.76615982 10.11634866 5.80088987 11.46443526 5.8125 12.8125 C5.83763672 13.50537109 5.86277344 14.19824219 5.88867188 14.91210938 C5.94713263 16.60747122 5.97653047 18.30379287 6 20 C6.99 20.33 7.98 20.66 9 21 C9 22.32 9 23.64 9 25 C2.47692308 25.36923077 2.47692308 25.36923077 0.0625 23.5 C-0.288125 23.005 -0.63875 22.51 -1 22 C-1.60328125 22.72896484 -1.60328125 22.72896484 -2.21875 23.47265625 C-4.9788468 25.8393182 -7.39661402 25.47876484 -10.90234375 25.34765625 C-13 25 -13 25 -15.0625 23.375 C-16.27652573 20.29946814 -16.47842171 18.28060601 -16 15 C-14.1329009 12.69724444 -12.64352259 11.32176129 -10 10 C-8.45976004 9.93049459 -6.91665012 9.91547643 -5.375 9.9375 C-4.14910156 9.95103516 -4.14910156 9.95103516 -2.8984375 9.96484375 C-1.95871094 9.98224609 -1.95871094 9.98224609 -1 10 C-1.66 8.35 -2.32 6.7 -3 5 C-4.32 5 -5.64 5 -7 5 C-7.33 5.99 -7.66 6.98 -8 8 C-10.31 8 -12.62 8 -15 8 C-14.1342843 5.33070993 -13.27808762 3.32258164 -11.4375 1.1875 C-7.7612752 -0.60348131 -3.97711939 -1.01943026 0 0 Z " fill="#E5B859" transform="translate(259,24)"/>
<path d="M0 0 C2.31 0 4.62 0 7 0 C7.33 6.27 7.66 12.54 8 19 C9.65 19.33 11.3 19.66 13 20 C14.9756562 17.03651571 15.26376859 16.31979627 15.4140625 12.98828125 C15.47207031 11.85229492 15.47207031 11.85229492 15.53125 10.69335938 C15.57765625 9.51483398 15.57765625 9.51483398 15.625 8.3125 C15.68300781 7.11657227 15.68300781 7.11657227 15.7421875 5.89648438 C15.83632494 3.93136525 15.91924632 1.9657146 16 0 C18.31 0 20.62 0 23 0 C23 8.25 23 16.5 23 25 C20.69 25 18.38 25 16 25 C15.67 24.34 15.34 23.68 15 23 C14.01 23.66 13.02 24.32 12 25 C8.43160753 25.55396415 5.1041612 25.74798017 2.0625 23.6875 C0.14504434 20.64212925 -0.12113665 18.04936034 -0.09765625 14.55078125 C-0.09443359 13.70322266 -0.09121094 12.85566406 -0.08789062 11.98242188 C-0.07951172 11.10134766 -0.07113281 10.22027344 -0.0625 9.3125 C-0.05798828 8.41982422 -0.05347656 7.52714844 -0.04882812 6.60742188 C-0.03704983 4.40488013 -0.02060164 2.20247401 0 0 Z " fill="#DDB358" transform="translate(198,24)"/>
<path d="M0 0 C1.98 0 3.96 0 6 0 C6.66 0.99 7.32 1.98 8 3 C8.37125 2.505 8.7425 2.01 9.125 1.5 C11.81181653 -0.64945323 13.64114713 -0.34274009 17 0 C19.60865157 0.86955052 20.65967432 1.44354404 22.09716797 3.79394531 C23.09553707 6.2334432 23.23078246 7.92209818 23.1953125 10.546875 C23.18886719 11.39121094 23.18242188 12.23554687 23.17578125 13.10546875 C23.15902344 13.97816406 23.14226562 14.85085937 23.125 15.75 C23.11597656 16.63816406 23.10695313 17.52632812 23.09765625 18.44140625 C23.07414577 20.62788058 23.04128499 22.81380094 23 25 C20.69 25 18.38 25 16 25 C15.67 19.06 15.34 13.12 15 7 C13.35 6.67 11.7 6.34 10 6 C6.97906785 9.02093215 7.53323166 12.56372072 7.375 16.625 C7.33632812 17.42679688 7.29765625 18.22859375 7.2578125 19.0546875 C7.16346069 21.03607556 7.08063785 23.01800645 7 25 C4.69 25 2.38 25 0 25 C0 16.75 0 8.5 0 0 Z " fill="#DEB458" transform="translate(93,24)"/>
<path d="M0 0 C2.31 0 4.62 0 7 0 C8.65 4.95 10.3 9.9 12 15 C12.433125 13.824375 12.86625 12.64875 13.3125 11.4375 C14.76035445 7.56966026 16.34479317 3.78332991 18 0 C19.98 0 21.96 0 24 0 C22.26277315 6.58491703 19.9800215 12.95276649 17.5625 19.3125 C17.27431396 20.08899902 16.98612793 20.86549805 16.68920898 21.66552734 C12.86566589 31.56716705 12.86566589 31.56716705 8 34 C6.00039988 34.039992 3.99952758 34.04346799 2 34 C2 32.35 2 30.7 2 29 C2.804375 28.773125 3.60875 28.54625 4.4375 28.3125 C7.20481247 27.27220146 7.20481247 27.27220146 7.76342773 24.7175293 C8.03204941 21.63184521 7.55406091 20.0387271 6.34765625 17.20703125 C5.98349609 16.32982422 5.61933594 15.45261719 5.24414062 14.54882812 C4.85419922 13.64583984 4.46425781 12.74285156 4.0625 11.8125 C3.3006306 10.00767083 2.54138021 8.20173313 1.78515625 6.39453125 C1.44363525 5.59893799 1.10211426 4.80334473 0.75024414 3.98364258 C0 2 0 2 0 0 Z " fill="#E8BA5A" transform="translate(294,25)"/>
<path d="M0 0 C2.1875 1.625 2.1875 1.625 4.1875 3.625 C4.1875 4.615 4.1875 5.605 4.1875 6.625 C2.2075 6.625 0.2275 6.625 -1.8125 6.625 C-2.1425 5.965 -2.4725 5.305 -2.8125 4.625 C-4.7925 4.625 -6.7725 4.625 -8.8125 4.625 C-10.05137548 7.10275095 -9.97991669 8.86153707 -10 11.625 C-10.01417969 12.511875 -10.02835937 13.39875 -10.04296875 14.3125 C-10.03963126 16.82019984 -10.03963126 16.82019984 -7.8125 18.625 C-5.23709787 18.45992354 -5.23709787 18.45992354 -2.8125 17.625 C-2.4825 16.965 -2.1525 16.305 -1.8125 15.625 C0.4975 15.625 2.8075 15.625 5.1875 15.625 C3.90622222 19.5756065 2.7416693 21.45888631 -0.8125 23.625 C-5.58403538 24.48620395 -9.60677124 24.32834178 -13.8125 21.875 C-17.3416184 17.90474179 -18.27571322 15.18350505 -18.1328125 9.72265625 C-17.47701364 5.42797349 -15.43395822 1.9109841 -12 -0.8125 C-7.62168746 -1.9383518 -4.08916862 -1.99914911 0 0 Z " fill="#E6B95A" transform="translate(286.8125,25.375)"/>
<path d="M0 0 C3.03965634 1.8108591 4.60422231 2.90400023 5.8125 6.25 C5.874375 6.8275 5.93625 7.405 6 8 C4.02 8 2.04 8 0 8 C-0.33 7.01 -0.66 6.02 -1 5 C-3.31 5.66 -5.62 6.32 -8 7 C-8.02696365 8.79158489 -8.04637917 10.58328473 -8.0625 12.375 C-8.07410156 13.37273438 -8.08570313 14.37046875 -8.09765625 15.3984375 C-8.18006602 17.98432453 -8.18006602 17.98432453 -7 20 C-4.58380177 20.25030977 -4.58380177 20.25030977 -2 20 C-1.34 19.01 -0.68 18.02 0 17 C3.125 16.8125 3.125 16.8125 6 17 C5.68132299 19.94776232 5.47089808 21.54849818 3.29296875 23.63671875 C-0.84985592 26.09982916 -5.34536188 25.75853362 -10 25 C-12.89683868 22.7984026 -14.39297231 21.21405538 -16 18 C-16.55258891 12.96328793 -16.53929549 9.07859097 -14.25 4.5 C-10.13733854 -0.06962384 -6.13009813 -0.99735724 0 0 Z " fill="#E6B95A" transform="translate(162,24)"/>
<path d="M0 0 C3.375 1.1875 3.375 1.1875 6 3 C6.875 5.6875 6.875 5.6875 7 8 C5.02 8 3.04 8 1 8 C0.67 7.34 0.34 6.68 0 6 C-1.98 6 -3.96 6 -6 6 C-7.58493084 9.16986168 -7.2940042 12.54032261 -7 16 C-6.13734032 18.40557853 -6.13734032 18.40557853 -5 20 C-3.02 20 -1.04 20 1 20 C1 19.01 1 18.02 1 17 C3.31 17 5.62 17 8 17 C6.71872222 20.9506065 5.5541693 22.83388631 2 25 C-2.8278319 25.87136478 -6.82380236 25.69611697 -11.0625 23.1875 C-14.61888683 19.17222454 -14.38656281 14.86997993 -14.359375 9.73828125 C-13.79931339 5.47085526 -12.14910247 3.84918795 -9 1 C-5.92805092 -0.53597454 -3.39755707 -0.2265038 0 0 Z " fill="#E8BB5A" transform="translate(186,24)"/>
<path d="M0 0 C2.31 0 4.62 0 7 0 C7 10.56 7 21.12 7 32 C4.69 32 2.38 32 0 32 C0 21.44 0 10.88 0 0 Z " fill="#E6B959" transform="translate(80,17)"/>
<path d="M0 0 C0 1.65 0 3.3 0 5 C-1.98 5.33 -3.96 5.66 -6 6 C-7.23759823 9.71279469 -7.35608897 13.31306346 -7.5625 17.1875 C-7.60568359 17.93708984 -7.64886719 18.68667969 -7.69335938 19.45898438 C-7.79922685 21.30578375 -7.9000976 23.15286834 -8 25 C-9.98 25 -11.96 25 -14 25 C-14 17.08 -14 9.16 -14 1 C-12.02 1 -10.04 1 -8 1 C-7.67 1.66 -7.34 2.32 -7 3 C-6.5875 2.505 -6.175 2.01 -5.75 1.5 C-4 0 -4 0 0 0 Z " fill="#EDBF5B" transform="translate(241,24)"/>
<path d="M0 0 C1.19109375 0.14695312 1.19109375 0.14695312 2.40625 0.296875 C3.59734375 0.42835937 3.59734375 0.42835937 4.8125 0.5625 C6.90625 1.046875 6.90625 1.046875 8.90625 3.046875 C9.56642065 7.10220899 8.89460363 9.54861765 6.71875 12.921875 C4.37044903 15.97466626 4.37044903 15.97466626 1.09375 16.484375 C0.371875 16.34 -0.35 16.195625 -1.09375 16.046875 C-0.58394669 12.27433047 0.11325182 10.59700377 2.90625 8.046875 C2.90625 7.386875 2.90625 6.726875 2.90625 6.046875 C1.25625 6.046875 -0.39375 6.046875 -2.09375 6.046875 C-2.75375 4.726875 -3.41375 3.406875 -4.09375 2.046875 C-2.09375 0.046875 -2.09375 0.046875 0 0 Z " fill="#FCFAF5" transform="translate(31.09375,21.953125)"/>
<path d="M0 0 C1.98 0 3.96 0 6 0 C6 5.28 6 10.56 6 16 C4.35 16 2.7 16 1 16 C0 15 0 15 -0.09765625 11.62109375 C-0.09098369 10.22652923 -0.07902532 8.83198257 -0.0625 7.4375 C-0.05798828 6.72658203 -0.05347656 6.01566406 -0.04882812 5.28320312 C-0.03700864 3.52209987 -0.01907263 1.76103964 0 0 Z " fill="#FBF7EE" transform="translate(42,22)"/>
<path d="M0 0 C1.134375 0.020625 2.26875 0.04125 3.4375 0.0625 C2.6875 4.8125 2.6875 4.8125 0.4375 7.0625 C-2.1875 6.6875 -2.1875 6.6875 -4.5625 6.0625 C-4.605221 4.39638095 -4.60313832 2.72867115 -4.5625 1.0625 C-3.5625 0.0625 -3.5625 0.0625 0 0 Z " fill="#423F3A" transform="translate(254.5625,37.9375)"/>
<path d="M0 0 C1.134375 0.020625 2.26875 0.04125 3.4375 0.0625 C2.6875 4.8125 2.6875 4.8125 0.4375 7.0625 C-2.1875 6.6875 -2.1875 6.6875 -4.5625 6.0625 C-4.605221 4.39638095 -4.60313832 2.72867115 -4.5625 1.0625 C-3.5625 0.0625 -3.5625 0.0625 0 0 Z " fill="#45413A" transform="translate(131.5625,37.9375)"/>
<path d="M0 0 C1.98 0 3.96 0 6 0 C6 1.65 6 3.3 6 5 C4.02 5 2.04 5 0 5 C0 3.35 0 1.7 0 0 Z " fill="#FCF9F4" transform="translate(42,41)"/>
<path d="M0 0 C1.65 0 3.3 0 5 0 C5 1.65 5 3.3 5 5 C3.35 5 1.7 5 0 5 C0 3.35 0 1.7 0 0 Z " fill="#FEFEFE" transform="translate(30,41)"/>
</svg>
