<?xml version="1.0" encoding="UTF-8"?>
<svg version="1.1" xmlns="http://www.w3.org/2000/svg" width="196" height="70">
<path d="M0 0 C64.68 0 129.36 0 196 0 C196 23.1 196 46.2 196 70 C131.32 70 66.64 70 0 70 C0 46.9 0 23.8 0 0 Z " fill="#3D3A39" transform="translate(0,0)"/>
<path d="M0 0 C5.02576395 2.98106151 9.10039959 6.81017419 11.7421875 12.09375 C12.49455604 19.08002928 12.41729953 24.693137 8.17578125 30.47265625 C4.54412035 34.57930277 1.39001488 36.80759629 -4.11328125 37.40234375 C-10.89256115 37.66461366 -15.51517777 37.52893034 -20.66796875 32.85546875 C-25.33990516 27.67845814 -26.9192106 23.57849671 -26.56640625 16.51171875 C-25.66955445 9.48448759 -22.39184249 5.86605563 -17.1953125 1.4765625 C-12.36585223 -1.97027003 -5.42745228 -2.17849296 0 0 Z " fill="#E96B56" transform="translate(35.2578125,15.90625)"/>
<path d="M0 0 C2.97 0 5.94 0 9 0 C11.66666667 6.66666667 14.33333333 13.33333333 17 20 C17.176521 19.42967041 17.35304199 18.85934082 17.53491211 18.27172852 C18.33255199 15.7009727 19.13495994 13.13173007 19.9375 10.5625 C20.21529297 9.66466797 20.49308594 8.76683594 20.77929688 7.84179688 C21.04677734 6.98779297 21.31425781 6.13378906 21.58984375 5.25390625 C21.83597412 4.46314697 22.08210449 3.6723877 22.33569336 2.85766602 C23 1 23 1 24 0 C26.97 0 29.94 0 33 0 C33 10.56 33 21.12 33 32 C31.02 32 29.04 32 27 32 C26.67 25.07 26.34 18.14 26 11 C23.69 17.93 21.38 24.86 19 32 C17.35 32 15.7 32 14 32 C11.69 25.07 9.38 18.14 7 11 C6.67 17.93 6.34 24.86 6 32 C4.02 32 2.04 32 0 32 C0 21.44 0 10.88 0 0 Z " fill="#E46853" transform="translate(70,17)"/>
<path d="M0 0 C3.0625 1.8125 3.0625 1.8125 5 4 C5 4.99 5 5.98 5 7 C2.625 7.125 2.625 7.125 0 7 C-0.66 6.34 -1.32 5.68 -2 5 C-5.58343976 4.83322718 -5.58343976 4.83322718 -9 5 C-8.67 5.99 -8.34 6.98 -8 8 C-5.27940236 9.18105313 -5.27940236 9.18105313 -2.0625 10.0625 C3.80338983 11.80338983 3.80338983 11.80338983 6 14 C6.51651858 17.98457188 6.62759666 20.1258475 4.25 23.4375 C-0.74417693 25.8385466 -5.56498405 25.9083383 -11 25 C-13.42726956 23.55065929 -14.34963458 22.35766489 -16 20 C-15.67 19.34 -15.34 18.68 -15 18 C-13.35 18 -11.7 18 -10 18 C-9.67 18.66 -9.34 19.32 -9 20 C-6.36 20 -3.72 20 -1 20 C-1 19.01 -1 18.02 -1 17 C-2.26457031 16.61908203 -2.26457031 16.61908203 -3.5546875 16.23046875 C-4.65039062 15.88628906 -5.74609375 15.54210938 -6.875 15.1875 C-7.96554688 14.85105469 -9.05609375 14.51460937 -10.1796875 14.16796875 C-13 13 -13 13 -15 10 C-14.92991794 6.07540453 -14.87717745 3.84976565 -12 1.0625 C-7.90620992 -0.38738399 -4.29334591 -0.7142637 0 0 Z " fill="#E46853" transform="translate(162,24)"/>
<path d="M0 0 C3 1.25 3 1.25 5 3 C5.8125 5.1875 5.8125 5.1875 6 7 C3.125 7.125 3.125 7.125 0 7 C-0.66 6.34 -1.32 5.68 -2 5 C-4.58354218 4.83312552 -4.58354218 4.83312552 -7 5 C-7.33 5.99 -7.66 6.98 -8 8 C-7.32453125 8.18175781 -6.6490625 8.36351562 -5.953125 8.55078125 C-5.06109375 8.80214844 -4.1690625 9.05351563 -3.25 9.3125 C-2.36828125 9.55613281 -1.4865625 9.79976562 -0.578125 10.05078125 C2.13193607 11.04857646 3.92039821 11.99653923 6 14 C6.56640625 15.9375 6.56640625 15.9375 6.5625 18 C6.58441406 18.680625 6.60632813 19.36125 6.62890625 20.0625 C6 22 6 22 3.84375 23.7265625 C0.64417864 25.15933759 -1.57006314 25.4014913 -5.0625 25.375 C-6.08472656 25.38273437 -7.10695312 25.39046875 -8.16015625 25.3984375 C-11.34295688 24.95188225 -12.76189165 24.28641284 -15 22 C-15 21.01 -15 20.02 -15 19 C-12.625 18.375 -12.625 18.375 -10 18 C-9.34 18.66 -8.68 19.32 -8 20 C-5.31160615 20.26991906 -2.70858064 20.08737357 0 20 C0 19.01 0 18.02 0 17 C-0.75925781 16.81824219 -1.51851562 16.63648437 -2.30078125 16.44921875 C-3.29464844 16.19785156 -4.28851563 15.94648437 -5.3125 15.6875 C-6.29863281 15.44386719 -7.28476563 15.20023438 -8.30078125 14.94921875 C-11.04760486 13.98325907 -12.29764673 13.33013138 -14 11 C-14.5 7.5625 -14.5 7.5625 -14 4 C-10.21721766 -0.75898424 -5.65465846 -0.85024756 0 0 Z " fill="#E56853" transform="translate(136,24)"/>
<path d="M0 0 C0.66 0 1.32 0 2 0 C2.78375 0.845625 3.5675 1.69125 4.375 2.5625 C6.66287091 5.22354518 6.66287091 5.22354518 9.125 5.0625 C11.44570777 3.74743226 12.56512796 2.22405166 14 0 C15.32 0.66 16.64 1.32 18 2 C18 7.30479934 16.4637943 8.18982627 13 12 C14.98 13.65 16.96 15.3 19 17 C18.34 18.32 17.68 19.64 17 21 C13 21 13 21 10.75 19 C10.1725 18.34 9.595 17.68 9 17 C6.11562221 18.29299694 4.12780579 19.65941363 2 22 C0.0625 21.1875 0.0625 21.1875 -2 20 C-2.33 19.01 -2.66 18.02 -3 17 C-1.02 15.35 0.96 13.7 3 12 C1.02 9.69 -0.96 7.38 -3 5 C-1 1 -1 1 0 0 Z " fill="#EFEBEA" transform="translate(20,23)"/>
<path d="M0 0 C1.98 0 3.96 0 6 0 C6 7.92 6 15.84 6 24 C4.02 24 2.04 24 0 24 C0 16.08 0 8.16 0 0 Z " fill="#EE6B55" transform="translate(109,25)"/>
<path d="M0 0 C1.98 0 3.96 0 6 0 C6 1.65 6 3.3 6 5 C4.02 5 2.04 5 0 5 C0 3.35 0 1.7 0 0 Z " fill="#DD6652" transform="translate(109,15)"/>
</svg>
