<?xml version="1.0" encoding="UTF-8"?>
<svg version="1.1" xmlns="http://www.w3.org/2000/svg" width="258" height="78">
<path d="M0 0 C85.14 0 170.28 0 258 0 C258 25.74 258 51.48 258 78 C172.86 78 87.72 78 0 78 C0 52.26 0 26.52 0 0 Z " fill="#3D3A38" transform="translate(0,0)"/>
<path d="M0 0 C4.86892392 2.68895207 8.7635549 7.13198455 10.51953125 12.453125 C11.70753008 19.29390946 11.57202361 26.4550421 7.875 32.5 C3.25578886 37.63245683 -1.50829654 40.4755531 -8.4375 40.9375 C-13.67949311 40.79794611 -17.21182518 38.91017414 -21.125 35.5 C-26.50945481 29.51430333 -27.51097599 24.26640592 -27.39453125 16.31640625 C-26.88732379 11.01645583 -25.10123725 7.32116028 -21.18359375 3.7109375 C-14.61058207 -1.39736992 -7.93310108 -3.45645671 0 0 Z " fill="#E18D2B" transform="translate(38.125,15.5)"/>
<path d="M0 0 C2.97 0 5.94 0 9 0 C11.66666667 6.66666667 14.33333333 13.33333333 17 20 C17.176521 19.42967041 17.35304199 18.85934082 17.53491211 18.27172852 C18.33255199 15.7009727 19.13495994 13.13173007 19.9375 10.5625 C20.21529297 9.66466797 20.49308594 8.76683594 20.77929688 7.84179688 C21.04677734 6.98779297 21.31425781 6.13378906 21.58984375 5.25390625 C21.83597412 4.46314697 22.08210449 3.6723877 22.33569336 2.85766602 C23 1 23 1 24 0 C26.97 0 29.94 0 33 0 C33 10.56 33 21.12 33 32 C31.02 32 29.04 32 27 32 C26.67 24.74 26.34 17.48 26 10 C24.0684102 16.4913422 24.0684102 16.4913422 22.14086914 22.98388672 C21.77916626 24.19455811 21.77916626 24.19455811 21.41015625 25.4296875 C21.16402588 26.25710449 20.91789551 27.08452148 20.66430664 27.93701172 C20 30 20 30 19 32 C17.35 32 15.7 32 14 32 C11.52773311 24.70681268 9.24838274 17.36539173 7 10 C6.67 17.26 6.34 24.52 6 32 C4.02 32 2.04 32 0 32 C0 21.44 0 10.88 0 0 Z " fill="#DB8A2A" transform="translate(72,20)"/>
<path d="M0 0 C4.56944444 2.13888889 4.56944444 2.13888889 6 5 C6.23172827 7.54615009 6.41894529 10.07396225 6.5625 12.625 C6.60568359 13.33140625 6.64886719 14.0378125 6.69335938 14.765625 C6.79944751 16.51018537 6.90022889 18.25506697 7 20 C7.99 20.33 8.98 20.66 10 21 C10 22.32 10 23.64 10 25 C3.47692308 25.36923077 3.47692308 25.36923077 1.0625 23.5 C0.711875 23.005 0.36125 22.51 0 22 C-0.60328125 22.72896484 -0.60328125 22.72896484 -1.21875 23.47265625 C-3.9788468 25.8393182 -6.39661402 25.47876484 -9.90234375 25.34765625 C-12 25 -12 25 -14.0625 23.375 C-15.27652573 20.29946814 -15.47842171 18.28060601 -15 15 C-13.1329009 12.69724444 -11.64352259 11.32176129 -9 10 C-7.45976004 9.93049459 -5.91665012 9.91547643 -4.375 9.9375 C-3.14910156 9.95103516 -3.14910156 9.95103516 -1.8984375 9.96484375 C-0.95871094 9.98224609 -0.95871094 9.98224609 0 10 C-0.66 8.35 -1.32 6.7 -2 5 C-3.32 5 -4.64 5 -6 5 C-6.33 5.99 -6.66 6.98 -7 8 C-9.31 8 -11.62 8 -14 8 C-13.12269491 5.29497597 -12.28331029 3.31599994 -10.375 1.1875 C-6.948246 -0.525877 -3.71555916 -0.56028273 0 0 Z " fill="#DB892A" transform="translate(178,27)"/>
<path d="M0 0 C2.46615278 1.84961459 3.49544028 3.48974064 4.75 6.3125 C4.75 8.6225 4.75 10.9325 4.75 13.3125 C-0.2 13.3125 -5.15 13.3125 -10.25 13.3125 C-9.59 15.2925 -8.93 17.2725 -8.25 19.3125 C-6.58388095 19.355221 -4.91617115 19.35313832 -3.25 19.3125 C-2.92 18.9825 -2.59 18.6525 -2.25 18.3125 C0.08297433 18.27157063 2.41705225 18.27008277 4.75 18.3125 C2.125 23.1875 2.125 23.1875 -1.25 24.3125 C-6.4008468 24.92361742 -10.03372799 25.2060876 -14.3125 22.0625 C-17.54474904 17.47479168 -18.03400752 12.89721107 -17.25 7.3125 C-15.62609951 4.18069191 -14.24733974 2.06910256 -11.4375 -0.0625 C-7.55296684 -1.17236662 -3.86539426 -1.18109269 0 0 Z " fill="#DE8B2A" transform="translate(232.25,27.6875)"/>
<path d="M0 0 C1.98 0 3.96 0 6 0 C6.33 5.61 6.66 11.22 7 17 C8.010625 15.68 9.02125 14.36 10.0625 13 C13.45331722 9.06942004 13.45331722 9.06942004 17.9375 8.5 C18.948125 8.665 19.95875 8.83 21 9 C20.3503125 9.68835938 20.3503125 9.68835938 19.6875 10.390625 C19.130625 11.00421875 18.57375 11.6178125 18 12.25 C17.443125 12.85328125 16.88625 13.4565625 16.3125 14.078125 C14.62402557 16.162653 14.62402557 16.162653 15 20 C16.52568676 23.06239396 16.52568676 23.06239396 18.5 26.1875 C22 31.93055556 22 31.93055556 22 33 C18.875 33.625 18.875 33.625 15 33 C12.50484239 29.91488105 10.73463624 26.55822819 9 23 C8.34 23.33 7.68 23.66 7 24 C6.53348793 26.12576782 6.53348793 26.12576782 6.375 28.5625 C6.30023438 29.38878906 6.22546875 30.21507813 6.1484375 31.06640625 C6.09945312 31.70449219 6.05046875 32.34257813 6 33 C4.02 33 2.04 33 0 33 C0 22.11 0 11.22 0 0 Z " fill="#E18D2A" transform="translate(191,19)"/>
<path d="M0 0 C3 1.25 3 1.25 5 3 C5.8125 5.1875 5.8125 5.1875 6 7 C3.125 7.125 3.125 7.125 0 7 C-0.66 6.34 -1.32 5.68 -2 5 C-4.58354218 4.83312552 -4.58354218 4.83312552 -7 5 C-7.33 5.99 -7.66 6.98 -8 8 C-7.32453125 8.18175781 -6.6490625 8.36351562 -5.953125 8.55078125 C-5.06109375 8.80214844 -4.1690625 9.05351563 -3.25 9.3125 C-2.36828125 9.55613281 -1.4865625 9.79976562 -0.578125 10.05078125 C2.13193607 11.04857646 3.92039821 11.99653923 6 14 C6.56640625 15.9375 6.56640625 15.9375 6.5625 18 C6.58441406 18.680625 6.60632813 19.36125 6.62890625 20.0625 C6 22 6 22 3.84375 23.72265625 C0.65605006 25.154494 -1.57987261 25.43309718 -5.0625 25.4375 C-6.08472656 25.45683594 -7.10695312 25.47617187 -8.16015625 25.49609375 C-11.67811176 24.88154031 -12.87144982 23.8227536 -15 21 C-15 20.01 -15 19.02 -15 18 C-12.625 17.875 -12.625 17.875 -10 18 C-9.34 18.66 -8.68 19.32 -8 20 C-5.31160615 20.26991906 -2.70858064 20.08737357 0 20 C0 19.01 0 18.02 0 17 C-0.74765625 16.82984375 -1.4953125 16.6596875 -2.265625 16.484375 C-3.25046875 16.24203125 -4.2353125 15.9996875 -5.25 15.75 C-6.71179688 15.40195312 -6.71179688 15.40195312 -8.203125 15.046875 C-11.35515193 13.86706604 -12.87601773 12.58335518 -15 10 C-15.625 7.5625 -15.625 7.5625 -15 5 C-10.56227762 -0.12044889 -6.64559166 -1.1259566 0 0 Z " fill="#DA892A" transform="translate(138,27)"/>
<path d="M0 0 C1.32 0 2.64 0 4 0 C4 1.98 4 3.96 4 6 C5.65 6 7.3 6 9 6 C9 7.32 9 8.64 9 10 C7.35 10 5.7 10 4 10 C4.05985379 12.29240007 4.14859027 14.58406206 4.25 16.875 C4.29640625 18.15117188 4.3428125 19.42734375 4.390625 20.7421875 C4.62555056 24.09188105 4.62555056 24.09188105 7.046875 25.4453125 C7.69140625 25.62835938 8.3359375 25.81140625 9 26 C9 27.32 9 28.64 9 30 C7.54257537 30.08096803 6.08387193 30.13917774 4.625 30.1875 C3.81289062 30.22230469 3.00078125 30.25710937 2.1640625 30.29296875 C1.44992188 30.19628906 0.73578125 30.09960938 0 30 C-2.03120707 26.95318939 -2.24659875 26.39881676 -2.1953125 22.98828125 C-2.18886719 22.23095703 -2.18242187 21.47363281 -2.17578125 20.69335938 C-2.15902344 19.90767578 -2.14226562 19.12199219 -2.125 18.3125 C-2.11597656 17.51521484 -2.10695312 16.71792969 -2.09765625 15.89648438 C-2.07411585 13.930861 -2.03824547 11.96539225 -2 10 C-2.99 10 -3.98 10 -5 10 C-5 8.35 -5 6.7 -5 5 C-3.68 5 -2.36 5 -1 5 C-0.67 3.35 -0.34 1.7 0 0 Z " fill="#DE8B2A" transform="translate(152,22)"/>
<path d="M0 0 C1.98 0 3.96 0 6 0 C6 7.92 6 15.84 6 24 C4.02 24 2.04 24 0 24 C0 16.08 0 8.16 0 0 Z " fill="#E58F2A" transform="translate(111,28)"/>
<path d="M0 0 C1.9375 1.1875 1.9375 1.1875 3 3 C3.59373887 6.90171259 3.39247724 8.45559609 1.0625 11.6875 C0.381875 12.450625 -0.29875 13.21375 -1 14 C-1.33 14.99 -1.66 15.98 -2 17 C-3.65 17 -5.3 17 -7 17 C-7.41176754 13.39703406 -7.1535853 12.21597933 -5 9.1875 C-4.34 8.465625 -3.68 7.74375 -3 7 C-3.5775 6.9175 -4.155 6.835 -4.75 6.75 C-7.6159304 5.79468987 -8.9990764 4.21530827 -11 2 C-7.38613475 -1.61386525 -4.79801865 -1.22131384 0 0 Z " fill="#FAF5EE" transform="translate(34,23)"/>
<path d="M0 0 C1.134375 0.020625 2.26875 0.04125 3.4375 0.0625 C2.6875 4.8125 2.6875 4.8125 0.4375 7.0625 C-2.1875 6.6875 -2.1875 6.6875 -4.5625 6.0625 C-4.605221 4.39638095 -4.60313832 2.72867115 -4.5625 1.0625 C-3.5625 0.0625 -3.5625 0.0625 0 0 Z " fill="#423D38" transform="translate(174.5625,40.9375)"/>
<path d="M0 0 C1.2684375 0.12375 1.2684375 0.12375 2.5625 0.25 C4.5625 3.25 4.5625 3.25 4.5625 6.25 C1.5925 6.25 -1.3775 6.25 -4.4375 6.25 C-3.37788848 0.3464501 -3.37788848 0.3464501 0 0 Z " fill="#473F37" transform="translate(226.4375,30.75)"/>
<path d="M0 0 C0.33 0 0.66 0 1 0 C1 8.25 1 16.5 1 25 C0.67 25 0.34 25 0 25 C-0.06058594 23.95199219 -0.12117188 22.90398438 -0.18359375 21.82421875 C-0.26801738 20.44529952 -0.35266447 19.06639395 -0.4375 17.6875 C-0.47681641 16.99720703 -0.51613281 16.30691406 -0.55664062 15.59570312 C-0.74927415 12.52838465 -1.02322717 9.93031848 -2 7 C-1.40206327 4.64811553 -0.74118205 2.31074405 0 0 Z " fill="#654E34" transform="translate(98,27)"/>
<path d="M0 0 C1.65 0 3.3 0 5 0 C5 1.98 5 3.96 5 6 C3.35 6 1.7 6 0 6 C0 4.02 0 2.04 0 0 Z " fill="#FBF8F3" transform="translate(27,43)"/>
<path d="M0 0 C1.98 0 3.96 0 6 0 C6 1.65 6 3.3 6 5 C4.02 5 2.04 5 0 5 C0 3.35 0 1.7 0 0 Z " fill="#D4862B" transform="translate(111,18)"/>
</svg>
